<svg width="24" height="6" viewBox="0 0 24 6" fill="none" xmlns="http://www.w3.org/2000/svg">
<path d="M3.61238 0.242554C2.0335 0.242554 0.741699 1.52869 0.741699 3.10063C0.741699 4.67257 2.0335 5.9587 3.61238 5.9587C5.19125 5.9587 6.48305 4.67257 6.48305 3.10063C6.48305 1.52869 5.19125 0.242554 3.61238 0.242554ZM20.8364 0.242554C19.2576 0.242554 17.9658 1.52869 17.9658 3.10063C17.9658 4.67257 19.2576 5.9587 20.8364 5.9587C22.4153 5.9587 23.7071 4.67257 23.7071 3.10063C23.7071 1.52869 22.4153 0.242554 20.8364 0.242554ZM12.2244 0.242554C10.6455 0.242554 9.35373 1.52869 9.35373 3.10063C9.35373 4.67257 10.6455 5.9587 12.2244 5.9587C13.8033 5.9587 15.0951 4.67257 15.0951 3.10063C15.0951 1.52869 13.8033 0.242554 12.2244 0.242554Z" fill="white"/>
</svg>
