<svg width="178" height="113" viewBox="0 0 178 113" fill="none" xmlns="http://www.w3.org/2000/svg">
<path d="M71.1113 32.0695C71.1113 31.3991 71.3102 30.7437 71.6827 30.1863C72.0553 29.6288 72.5849 29.1945 73.2044 28.9381C73.8239 28.6818 74.5056 28.6149 75.1631 28.7461C75.8206 28.8772 76.4245 29.2004 76.8982 29.6748C77.372 30.1493 77.6944 30.7536 77.8246 31.4113C77.9549 32.069 77.8871 32.7505 77.6299 33.3697C77.3727 33.9888 76.9376 34.5178 76.3796 34.8896C75.8217 35.2614 75.166 35.4594 74.4956 35.4585C73.5976 35.4573 72.7368 35.0997 72.1022 34.4642C71.4677 33.8288 71.1113 32.9675 71.1113 32.0695ZM69.9489 52.1419C67.2751 49.9474 64.8278 47.4906 62.6436 44.8085C64.8805 42.3235 67.3108 40.0197 69.9116 37.9185C70.0428 37.8106 70.1514 37.678 70.2313 37.5281C70.3113 37.3782 70.3609 37.2141 70.3773 37.045C70.3938 36.876 70.3768 36.7053 70.3273 36.5428C70.2779 36.3803 70.1969 36.2292 70.089 36.098C69.9811 35.9668 69.8484 35.8582 69.6985 35.7783C69.5487 35.6984 69.3845 35.6488 69.2155 35.6323C69.0464 35.6158 68.8758 35.6328 68.7133 35.6823C68.5508 35.7317 68.3997 35.8127 68.2685 35.9206C65.7127 37.9927 63.3131 40.2504 61.0891 42.6752C58.8578 39.2862 58.1063 36.3781 59.1893 34.5109C60.2722 32.6437 63.101 31.8315 67.2649 32.0789C67.6056 32.0966 67.9396 31.9789 68.1939 31.7514C68.4483 31.524 68.6024 31.2052 68.6227 30.8646C68.6431 30.524 68.5279 30.1892 68.3024 29.9331C68.0769 29.677 67.7593 29.5204 67.4189 29.4975C62.1534 29.1847 58.5497 30.4684 56.944 33.2319C55.945 34.9684 55.3522 38.0726 58.237 42.9973C58.5684 43.5668 58.9419 44.1503 59.3526 44.7384C55.3428 49.7799 53.9891 54.1397 55.7069 57.1133C57.0046 59.3585 59.8008 60.5022 63.9039 60.5022C65.4319 60.4913 66.9566 60.3618 68.4645 60.1148C68.8038 60.0615 69.1079 59.8757 69.3101 59.5982C69.5124 59.3207 69.5961 58.9742 69.5428 58.635C69.4896 58.2958 69.3038 57.9916 69.0263 57.7894C68.7488 57.5872 68.4023 57.5035 68.0631 57.5567C62.7509 58.3876 59.0679 57.7528 57.9522 55.8202C56.986 54.1491 57.7842 51.0215 60.9631 46.867C63.1712 49.5168 65.6233 51.9533 68.2871 54.1444C68.5192 54.3412 68.8138 54.4487 69.118 54.4478C69.3843 54.4487 69.6443 54.3674 69.8625 54.215C70.0808 54.0626 70.2467 53.8465 70.3376 53.5963C70.4285 53.3461 70.44 53.0739 70.3704 52.8169C70.3008 52.56 70.1537 52.3307 69.9489 52.1605V52.1419ZM73.7067 37.9979C73.5363 37.9966 73.3674 38.0292 73.2097 38.0937C73.052 38.1582 72.9086 38.2533 72.788 38.3736C72.6673 38.4938 72.5716 38.6368 72.5066 38.7943C72.4415 38.9517 72.4084 39.1205 72.409 39.2909V39.5383C72.409 43.058 72.577 46.5403 72.9038 49.9059C72.935 50.2262 73.0842 50.5234 73.3222 50.7399C73.5603 50.9564 73.8703 51.0768 74.1921 51.0776H74.3182C74.6569 51.0433 74.9685 50.8772 75.186 50.6153C75.4034 50.3533 75.5092 50.0164 75.4805 49.6772C75.1631 46.4096 75.0137 42.9926 75.0137 39.557V39.3189C75.0175 39.1458 74.9863 38.9737 74.9221 38.8129C74.8579 38.6521 74.7619 38.5059 74.6399 38.383C74.5179 38.2601 74.3724 38.1631 74.212 38.0977C74.0517 38.0324 73.8798 38 73.7067 38.0025V37.9979ZM93.1441 47.9547C89.4469 50.0273 85.6278 51.8746 81.7076 53.4862C81.4302 53.6006 81.2011 53.8076 81.0591 54.0718C80.9172 54.3361 80.8712 54.6414 80.9289 54.9358C80.9867 55.2302 81.1447 55.4955 81.376 55.6865C81.6074 55.8776 81.8977 55.9825 82.1977 55.9836C82.3659 55.9826 82.5323 55.9494 82.6879 55.8856C86.7036 54.2335 90.6162 52.3411 94.4045 50.2186C94.6843 50.0412 94.8856 49.7634 94.9672 49.4423C95.0488 49.1212 95.0045 48.781 94.8433 48.4916C94.6822 48.2021 94.4164 47.9852 94.1004 47.8854C93.7845 47.7855 93.4424 47.8103 93.1441 47.9547ZM122.823 18.3644C120.872 14.9894 115.63 14.1072 107.652 15.8156C104.682 16.4706 101.76 17.3315 98.9091 18.3924C98.407 16.1668 97.771 13.9735 97.0046 11.8245C94.3065 4.41643 90.7681 0.5 86.749 0.5C79.551 0.5 75.1631 12.9588 73.4499 24.6194C73.4004 24.9593 73.4879 25.3049 73.6932 25.5802C73.8985 25.8555 74.2047 26.038 74.5446 26.0875C74.8844 26.137 75.23 26.0495 75.5053 25.8443C75.7806 25.639 75.9631 25.3327 76.0127 24.9929C77.9032 12.0953 82.3191 3.09073 86.749 3.09073C89.4984 3.09073 92.3506 6.59638 94.5492 12.7068C95.3174 14.8718 95.9504 17.0824 96.4444 19.326C91.658 21.2581 87.0155 23.5294 82.5525 26.1225C81.7869 26.5893 81.0027 27.0281 80.2185 27.5229C80.0732 27.6112 79.9467 27.7272 79.8463 27.8644C79.7459 28.0015 79.6734 28.1571 79.6331 28.3223C79.5928 28.4874 79.5854 28.6589 79.6114 28.8269C79.6373 28.9949 79.6961 29.1561 79.7844 29.3014C79.8727 29.4467 79.9887 29.5732 80.1258 29.6736C80.263 29.7741 80.4186 29.8465 80.5837 29.8868C80.7489 29.9271 80.9203 29.9345 81.0883 29.9086C81.2563 29.8826 81.4176 29.8238 81.5629 29.7356C82.3331 29.2688 83.0986 28.802 83.8455 28.3818C88.0672 25.9276 92.453 23.7675 96.9719 21.9167C97.9135 27.1562 98.4194 32.4647 98.4843 37.7878C98.4892 38.1275 98.6276 38.4516 98.8696 38.6901C99.1115 38.9286 99.4376 39.0622 99.7773 39.0622H99.8007C100.144 39.0548 100.47 38.9124 100.708 38.666C100.947 38.4195 101.079 38.0888 101.075 37.7458C101.006 32.1181 100.453 26.5067 99.4226 20.9738C110.532 16.8659 118.767 16.5765 120.559 19.6807C121.539 21.3799 120.676 24.2787 118.127 27.8357C115.354 31.6774 110.896 35.9766 105.22 40.1778C105.084 40.2793 104.969 40.4066 104.882 40.5525C104.794 40.6985 104.737 40.8601 104.712 41.0283C104.687 41.1965 104.696 41.3679 104.738 41.5327C104.779 41.6976 104.853 41.8526 104.954 41.989C105.056 42.1254 105.183 42.2405 105.329 42.3277C105.475 42.4148 105.636 42.4724 105.805 42.4971C105.973 42.5219 106.144 42.5132 106.309 42.4717C106.474 42.4301 106.629 42.3565 106.765 42.2551C112.656 37.8672 117.31 33.3859 120.228 29.3201C122.478 26.1739 124.746 21.7393 122.823 18.3644ZM106.84 47.8613C106.58 47.6372 106.242 47.5256 105.899 47.551C105.557 47.5764 105.239 47.7367 105.015 47.9967C104.791 48.2567 104.679 48.595 104.704 48.9373C104.73 49.2796 104.89 49.5978 105.15 49.8219C113.086 56.6418 117.1 63.4757 115.168 66.8226C113.833 69.1566 109.631 69.8708 103.642 68.8392C101.403 68.4402 99.1949 67.8865 97.0326 67.1821C98.6706 62.3926 99.7804 57.4385 100.342 52.4079C100.384 52.0675 100.289 51.7242 100.078 51.4537C99.8674 51.1832 99.5576 51.0076 99.2172 50.9655C98.8767 50.9234 98.5335 51.0183 98.263 51.2293C97.9925 51.4403 97.8169 51.75 97.7748 52.0905C97.2334 56.9447 96.1627 61.7251 94.5819 66.3465C90.1303 64.6933 85.8279 62.6631 81.7216 60.2781C81.4255 60.1299 81.084 60.1004 80.7669 60.1957C80.4498 60.291 80.1812 60.5039 80.0159 60.7909C79.8507 61.0778 79.8014 61.417 79.8781 61.7391C79.9548 62.0612 80.1517 62.3418 80.4286 62.5234C84.6417 64.9686 89.0548 67.0518 93.6203 68.7505C93.4802 69.0679 93.3402 69.376 93.1955 69.6841C91.2349 73.7593 88.9523 75.9999 86.7723 75.9999C83.6168 75.9999 80.3725 71.4066 78.0992 63.7138C78.0508 63.5507 77.9707 63.3988 77.8636 63.2667C77.7565 63.1346 77.6243 63.0248 77.4748 62.9438C77.3253 62.8627 77.1612 62.8119 76.992 62.7943C76.8228 62.7766 76.6518 62.7924 76.4888 62.8409C76.3257 62.8893 76.1738 62.9694 76.0417 63.0765C75.9096 63.1836 75.7999 63.3158 75.7188 63.4653C75.6377 63.6148 75.5869 63.7789 75.5693 63.9481C75.5516 64.1172 75.5674 64.2883 75.6159 64.4513C78.314 73.5679 82.2771 78.5906 86.7723 78.5906C90.0399 78.5906 93.0741 75.8972 95.5295 70.8091C95.7162 70.4217 95.8982 70.0155 96.0756 69.6048C98.4063 70.3709 100.788 70.9715 103.204 71.4019C104.922 71.7051 106.663 71.8612 108.408 71.8687C112.852 71.8687 115.98 70.585 117.408 68.1063C120.083 63.4477 116.129 55.8762 106.817 47.8613H106.84ZM94.8153 39.3283L93.9984 38.8615C90.1256 36.6131 86.0852 34.667 81.913 33.0405C81.5969 32.9367 81.2531 32.9583 80.9525 33.1008C80.6519 33.2432 80.4174 33.4957 80.2976 33.806C80.1778 34.1164 80.1817 34.4609 80.3086 34.7684C80.4355 35.0759 80.6756 35.3229 80.9794 35.4585C85.0257 37.036 88.943 38.926 92.696 41.1114L93.4896 41.5782C93.6881 41.6981 93.9158 41.7611 94.1478 41.7603C94.4407 41.7734 94.7293 41.6866 94.9664 41.514C95.2035 41.3415 95.3749 41.0935 95.4525 40.8108C95.5301 40.528 95.5093 40.2273 95.3935 39.9579C95.2778 39.6885 95.0738 39.4665 94.8153 39.3283ZM78.6781 56.9825C78.6781 56.3132 78.4796 55.6589 78.1077 55.1023C77.7358 54.5458 77.2073 54.112 76.5889 53.8559C75.9705 53.5997 75.29 53.5327 74.6335 53.6633C73.9771 53.7939 73.374 54.1162 72.9007 54.5895C72.4274 55.0628 72.1051 55.6658 71.9745 56.3223C71.8439 56.9788 71.911 57.6593 72.1671 58.2777C72.4233 58.8961 72.857 59.4246 73.4136 59.7965C73.9701 60.1683 74.6244 60.3668 75.2938 60.3668C76.1913 60.3668 77.0522 60.0103 77.6868 59.3756C78.3215 58.7409 78.6781 57.8801 78.6781 56.9825ZM103.18 45.0325C103.181 44.3621 102.983 43.7064 102.611 43.1484C102.24 42.5905 101.711 42.1554 101.091 41.8982C100.472 41.641 99.7907 41.5732 99.133 41.7034C98.4753 41.8337 97.8711 42.1561 97.3966 42.6299C96.9222 43.1036 96.599 43.7075 96.4678 44.365C96.3367 45.0225 96.4035 45.7041 96.6599 46.3237C96.9163 46.9432 97.3506 47.4728 97.908 47.8453C98.4655 48.2179 99.1209 48.4168 99.7913 48.4168C100.237 48.4168 100.679 48.3288 101.09 48.1579C101.502 47.9871 101.876 47.7366 102.191 47.4209C102.506 47.1052 102.755 46.7305 102.925 46.3183C103.095 45.906 103.182 45.4643 103.18 45.0185V45.0325Z" fill="url(#paint0_linear)"/>
<path d="M120.662 88.8649C128.023 88.8649 133.335 94.2424 133.335 100.852C133.335 107.462 128.023 112.84 120.662 112.84H112.89C112.766 112.84 112.647 112.79 112.56 112.703C112.472 112.615 112.423 112.497 112.423 112.373V89.313C112.423 89.1892 112.472 89.0705 112.56 88.9829C112.647 88.8954 112.766 88.8462 112.89 88.8462L120.662 88.8649ZM117.222 107.593C117.222 107.717 117.271 107.835 117.358 107.923C117.446 108.01 117.565 108.06 117.688 108.06H120.667C125.12 108.06 128.201 105.147 128.201 100.866C128.201 96.5857 125.12 93.6729 120.667 93.6729H117.688C117.565 93.6729 117.446 93.7221 117.358 93.8096C117.271 93.8972 117.222 94.0159 117.222 94.1397V107.593Z" fill="url(#paint1_linear)"/>
<path d="M152.143 89.313V93.2061C152.143 93.3299 152.093 93.4486 152.006 93.5362C151.918 93.6237 151.8 93.6729 151.676 93.6729H140.939C140.816 93.6729 140.697 93.7221 140.609 93.8096C140.522 93.8972 140.473 94.0159 140.473 94.1397V97.5193C140.473 97.6431 140.522 97.7618 140.609 97.8494C140.697 97.9369 140.816 97.9861 140.939 97.9861H148.6C148.723 97.9861 148.842 98.0353 148.93 98.1228C149.017 98.2104 149.066 98.3291 149.066 98.4529V102.346C149.066 102.47 149.017 102.589 148.93 102.676C148.842 102.764 148.723 102.813 148.6 102.813H140.949C140.825 102.813 140.706 102.862 140.619 102.95C140.531 103.037 140.482 103.156 140.482 103.28V107.686C140.482 107.81 140.531 107.929 140.619 108.016C140.706 108.104 140.825 108.153 140.949 108.153H152.035C152.159 108.153 152.278 108.202 152.365 108.29C152.453 108.377 152.502 108.496 152.502 108.62V112.518C152.502 112.641 152.453 112.76 152.365 112.848C152.278 112.935 152.159 112.984 152.035 112.984H136.164C136.04 112.984 135.922 112.935 135.834 112.848C135.746 112.76 135.697 112.641 135.697 112.518V89.313C135.697 89.1892 135.746 89.0705 135.834 88.9829C135.922 88.8954 136.04 88.8462 136.164 88.8462H151.704C151.823 88.8533 151.934 88.9057 152.016 88.9924C152.097 89.0792 152.143 89.1939 152.143 89.313Z" fill="url(#paint2_linear)"/>
<path d="M160.895 89.0564L165.475 95.6896C165.518 95.7467 165.574 95.7929 165.639 95.8248C165.703 95.8566 165.774 95.8732 165.846 95.8732C165.918 95.8732 165.988 95.8566 166.053 95.8248C166.117 95.7929 166.173 95.7467 166.217 95.6896L170.796 89.0564C170.839 88.9975 170.895 88.9496 170.96 88.9164C171.025 88.8831 171.097 88.8655 171.17 88.865H176.038C176.119 88.8696 176.198 88.8953 176.266 88.9394C176.334 88.9836 176.389 89.0448 176.426 89.1169C176.464 89.189 176.481 89.2695 176.478 89.3506C176.475 89.4317 176.45 89.5105 176.407 89.5792L168.938 99.9001C168.884 99.9782 168.855 100.071 168.855 100.166C168.855 100.261 168.884 100.354 168.938 100.432L177.425 112.102C177.468 112.171 177.492 112.249 177.496 112.33C177.499 112.41 177.482 112.491 177.445 112.563C177.409 112.635 177.354 112.696 177.286 112.74C177.219 112.785 177.141 112.811 177.061 112.816H172.196C172.124 112.815 172.054 112.797 171.99 112.764C171.926 112.731 171.87 112.683 171.828 112.625L166.226 104.61C166.182 104.554 166.127 104.508 166.063 104.477C165.999 104.446 165.929 104.429 165.857 104.429C165.786 104.429 165.716 104.446 165.652 104.477C165.588 104.508 165.532 104.554 165.489 104.61L159.887 112.625C159.844 112.683 159.789 112.731 159.725 112.764C159.661 112.797 159.59 112.815 159.518 112.816H154.617C154.536 112.811 154.458 112.785 154.391 112.74C154.324 112.696 154.269 112.635 154.232 112.563C154.195 112.491 154.178 112.41 154.182 112.33C154.185 112.249 154.21 112.171 154.253 112.102L162.744 100.432C162.798 100.354 162.827 100.261 162.827 100.166C162.827 100.071 162.798 99.9782 162.744 99.9001L155.275 89.5792C155.232 89.5108 155.208 89.4324 155.204 89.3517C155.2 89.271 155.218 89.1907 155.254 89.1187C155.291 89.0468 155.346 88.9855 155.413 88.9411C155.481 88.8966 155.559 88.8704 155.639 88.865H160.522C160.595 88.8655 160.666 88.8831 160.731 88.9164C160.796 88.9496 160.852 88.9975 160.895 89.0564Z" fill="url(#paint3_linear)"/>
<path d="M61.0238 95.3208C62.3185 94.4898 63.8176 94.0327 65.3557 93.9998C68.0538 93.9998 69.9957 94.7513 71.3167 95.9836C71.4492 96.1035 71.6199 96.1725 71.7985 96.1785C71.9771 96.1845 72.152 96.127 72.2923 96.0163C73.864 94.7698 75.7955 94.0627 77.8005 93.9998C83.4581 93.9998 85.9088 97.202 85.9088 102.295V111.533C85.9076 111.732 85.8273 111.924 85.6857 112.064C85.544 112.205 85.3523 112.284 85.1526 112.284H82.2864C82.0871 112.284 81.896 112.205 81.755 112.064C81.6141 111.923 81.5349 111.732 81.5349 111.533V102.776C81.5349 99.76 80.2139 98.2103 77.6511 98.2103C76.1738 98.2272 74.7609 98.8182 73.7114 99.8581C73.634 99.9296 73.5722 100.016 73.5296 100.113C73.4871 100.209 73.4647 100.313 73.464 100.418V111.523C73.464 111.723 73.3848 111.914 73.2438 112.055C73.1029 112.196 72.9117 112.275 72.7124 112.275H69.8463C69.7472 112.276 69.649 112.257 69.5572 112.219C69.4655 112.182 69.3821 112.126 69.3118 112.056C69.2416 111.987 69.1858 111.904 69.1477 111.812C69.1097 111.721 69.0901 111.622 69.0901 111.523V102.776C69.0901 99.76 67.769 98.2103 65.2063 98.2103C63.7304 98.2275 62.319 98.8184 61.2712 99.8581C61.193 99.9288 61.1305 100.015 61.0879 100.112C61.0452 100.208 61.0234 100.313 61.0238 100.418V111.523C61.0226 111.723 60.9423 111.914 60.8007 112.055C60.659 112.196 60.4673 112.275 60.2676 112.275H57.4014C57.2021 112.275 57.011 112.196 56.87 112.055C56.7291 111.914 56.6499 111.723 56.6499 111.523V95.3208C56.6499 95.2221 56.6693 95.1244 56.7071 95.0332C56.7449 94.942 56.8002 94.8592 56.87 94.7894C56.9398 94.7196 57.0227 94.6642 57.1138 94.6265C57.205 94.5887 57.3028 94.5692 57.4014 94.5692H60.2723C60.4712 94.5705 60.6616 94.65 60.8023 94.7907C60.943 94.9314 61.0226 95.1219 61.0238 95.3208Z" fill="#3C5368"/>
<path d="M34.939 109.045C34.9376 108.927 34.9088 108.812 34.8551 108.708C34.8014 108.603 34.7242 108.513 34.6296 108.444C34.5349 108.375 34.4255 108.328 34.3099 108.309C34.1943 108.289 34.0757 108.296 33.9634 108.33C33.3397 108.527 32.6896 108.628 32.0355 108.629C30.5278 108.629 29.2068 107.649 29.2068 104.633V99.732C29.2068 99.5314 29.2864 99.3391 29.4282 99.1973C29.5701 99.0554 29.7624 98.9758 29.963 98.9758H34.1875C34.3868 98.9758 34.578 98.8966 34.7189 98.7556C34.8598 98.6147 34.939 98.4235 34.939 98.2242V95.3207C34.9396 95.2217 34.9207 95.1234 34.8832 95.0317C34.8457 94.94 34.7904 94.8566 34.7206 94.7863C34.6507 94.716 34.5677 94.6602 34.4762 94.6222C34.3847 94.5841 34.2866 94.5645 34.1875 94.5645H29.963C29.7624 94.5645 29.5701 94.4849 29.4282 94.343C29.2864 94.2012 29.2068 94.0089 29.2068 93.8083V90.7928C29.2068 90.5935 29.1276 90.4023 28.9866 90.2614C28.8457 90.1204 28.6545 90.0413 28.4552 90.0413H25.5517C25.3536 90.0412 25.1633 90.119 25.0219 90.2578C24.8805 90.3966 24.7992 90.5853 24.7955 90.7835V93.799C24.7961 93.8981 24.7771 93.9963 24.7396 94.088C24.7022 94.1797 24.6469 94.2631 24.577 94.3334C24.5072 94.4037 24.4241 94.4595 24.3327 94.4975C24.2412 94.5356 24.1431 94.5552 24.044 94.5552H22.3448C22.2457 94.5552 22.1476 94.5748 22.0561 94.6128C21.9646 94.6509 21.8816 94.7067 21.8117 94.777C21.7419 94.8472 21.6866 94.9306 21.6491 95.0224C21.6116 95.1141 21.5927 95.2123 21.5933 95.3114V98.2149C21.5933 98.4142 21.6725 98.6054 21.8134 98.7463C21.9543 98.8873 22.1455 98.9664 22.3448 98.9664H24.044C24.1431 98.9664 24.2412 98.986 24.3327 99.0241C24.4241 99.0621 24.5072 99.1179 24.577 99.1882C24.6469 99.2585 24.7022 99.3419 24.7396 99.4336C24.7771 99.5253 24.7961 99.6236 24.7955 99.7226V104.997C24.7955 109.899 27.2462 112.84 32.0355 112.84C32.8403 112.811 33.6377 112.676 34.4069 112.438C34.5617 112.391 34.6971 112.295 34.7929 112.165C34.8888 112.034 34.94 111.876 34.939 111.715V109.045Z" fill="#3C5368"/>
<path d="M45.2881 93.9902C43.4243 93.9912 41.6026 94.5447 40.0534 95.5808C38.5041 96.617 37.2969 98.0893 36.5842 99.8115C35.8716 101.534 35.6857 103.429 36.0498 105.256C36.414 107.084 37.312 108.763 38.6302 110.081C39.9485 111.398 41.6278 112.296 43.4559 112.659C45.2839 113.022 47.1787 112.835 48.9006 112.122C50.6224 111.408 52.0941 110.2 53.1295 108.65C54.1648 107.101 54.7175 105.279 54.7175 103.415C54.7175 102.177 54.4735 100.951 53.9996 99.8072C53.5257 98.6634 52.8311 97.6242 51.9554 96.749C51.0797 95.8738 50.0402 95.1797 48.8962 94.7063C47.7522 94.2329 46.5262 93.9896 45.2881 93.9902ZM45.2881 108.615C44.2589 108.619 43.2517 108.317 42.394 107.748C41.5364 107.179 40.867 106.368 40.4706 105.418C40.0741 104.468 39.9685 103.422 40.167 102.412C40.3655 101.402 40.8593 100.474 41.5858 99.7445C42.3123 99.0154 43.2389 98.5183 44.2481 98.3161C45.2573 98.1139 46.3039 98.2158 47.2551 98.6088C48.2064 99.0019 49.0197 99.6684 49.5919 100.524C50.1641 101.379 50.4696 102.386 50.4696 103.415C50.4696 104.791 49.9243 106.111 48.9531 107.085C47.982 108.06 46.6641 108.61 45.2881 108.615Z" fill="#3C5368"/>
<path d="M92.8596 89.9525C92.8596 88.697 91.8418 87.6792 90.5863 87.6792C89.3308 87.6792 88.313 88.697 88.313 89.9525C88.313 91.208 89.3308 92.2258 90.5863 92.2258C91.8418 92.2258 92.8596 91.208 92.8596 89.9525Z" fill="#3C5368"/>
<path d="M91.9912 94.5552H89.1298C88.7121 94.5552 88.3735 94.8937 88.3735 95.3114V111.519C88.3735 111.936 88.7121 112.275 89.1298 112.275H91.9912C92.4089 112.275 92.7474 111.936 92.7474 111.519V95.3114C92.7474 94.8937 92.4089 94.5552 91.9912 94.5552Z" fill="#3C5368"/>
<path d="M19.0867 94.5552H16.2206C16.1207 94.554 16.0216 94.5727 15.929 94.6102C15.8364 94.6477 15.7523 94.7032 15.6814 94.7737C15.6106 94.8441 15.5545 94.9279 15.5164 95.0202C15.4783 95.1126 15.459 95.2116 15.4597 95.3114V95.4561C14.0341 94.5495 12.3911 94.0426 10.7025 93.9883C9.01393 93.934 7.34178 94.3344 5.8609 95.1476C4.38003 95.9607 3.14483 97.1569 2.28448 98.6108C1.42412 100.065 0.970215 101.723 0.970215 103.413C0.970215 105.102 1.42412 106.761 2.28448 108.215C3.14483 109.669 4.38003 110.865 5.8609 111.678C7.34178 112.491 9.01393 112.891 10.7025 112.837C12.3911 112.783 14.0341 112.276 15.4597 111.369V111.523C15.4597 111.723 15.5389 111.914 15.6798 112.055C15.8207 112.196 16.0119 112.275 16.2112 112.275H19.0774C19.2771 112.275 19.4688 112.196 19.6104 112.055C19.7521 111.914 19.8323 111.723 19.8336 111.523V95.3114C19.8336 95.1125 19.7552 94.9215 19.6154 94.78C19.4756 94.6384 19.2856 94.5577 19.0867 94.5552ZM10.4136 108.615C9.43777 108.616 8.48134 108.343 7.65361 107.826C6.82589 107.309 6.16028 106.57 5.73288 105.693C5.30548 104.815 5.13353 103.836 5.23669 102.865C5.33985 101.895 5.71396 100.973 6.31625 100.205C6.91854 99.4377 7.7247 98.8549 8.64259 98.5237C9.56047 98.1924 10.553 98.1262 11.5068 98.3324C12.4606 98.5387 13.3371 99.0091 14.0361 99.69C14.7351 100.371 15.2284 101.235 15.4597 102.183V104.647C15.1831 105.778 14.5358 106.783 13.6212 107.502C12.7065 108.221 11.5772 108.613 10.4136 108.615Z" fill="#3C5368"/>
<path d="M109.183 108.545C109.183 108.419 109.151 108.295 109.09 108.184C109.029 108.073 108.942 107.979 108.836 107.911C108.729 107.843 108.608 107.802 108.482 107.793C108.356 107.784 108.229 107.807 108.114 107.859C107.031 108.357 105.853 108.616 104.66 108.62C101.392 108.62 99.3431 106.319 99.3431 103.415C99.3431 100.512 101.383 98.2103 104.66 98.2103C105.853 98.214 107.031 98.4734 108.114 98.9712C108.229 99.0246 108.355 99.0482 108.481 99.0399C108.607 99.0316 108.729 98.9916 108.836 98.9237C108.942 98.8558 109.03 98.762 109.091 98.6512C109.151 98.5404 109.183 98.4161 109.183 98.2897V95.4609C109.185 95.3114 109.141 95.1651 109.057 95.041C108.974 94.9169 108.855 94.8208 108.716 94.7654C107.426 94.2443 106.047 93.9811 104.655 93.9905C98.811 93.9905 94.8525 98.1917 94.8525 103.415C94.8525 108.639 98.811 112.84 104.655 112.84C106.046 112.851 107.426 112.589 108.716 112.07C108.856 112.013 108.975 111.916 109.058 111.791C109.141 111.667 109.185 111.519 109.183 111.369V108.545Z" fill="#3C5368"/>
<defs>
<linearGradient id="paint0_linear" x1="54.9787" y1="39.5383" x2="123.537" y2="39.5383" gradientUnits="userSpaceOnUse">
<stop offset="0.02" stop-color="#2ABCF1"/>
<stop offset="1" stop-color="#6A4DE3"/>
</linearGradient>
<linearGradient id="paint1_linear" x1="110.496" y1="88" x2="174.996" y2="119.5" gradientUnits="userSpaceOnUse">
<stop offset="0.02" stop-color="#2ABCF1"/>
<stop offset="1" stop-color="#6A4DE3"/>
</linearGradient>
<linearGradient id="paint2_linear" x1="112.996" y1="77.5" x2="167.996" y2="118" gradientUnits="userSpaceOnUse">
<stop offset="0.02" stop-color="#2ABCF1"/>
<stop offset="1" stop-color="#6A4DE3"/>
</linearGradient>
<linearGradient id="paint3_linear" x1="113.496" y1="74" x2="180.996" y2="116.5" gradientUnits="userSpaceOnUse">
<stop offset="0.02" stop-color="#2ABCF1"/>
<stop offset="1" stop-color="#6A4DE3"/>
</linearGradient>
</defs>
</svg>
