<svg width="178" height="113" viewBox="0 0 178 113" fill="none" xmlns="http://www.w3.org/2000/svg">
<path d="M71.1147 32.0695C71.1147 31.3991 71.3136 30.7437 71.6862 30.1863C72.0588 29.6288 72.5883 29.1945 73.2078 28.9381C73.8274 28.6818 74.509 28.6149 75.1665 28.7461C75.824 28.8772 76.4279 29.2004 76.9016 29.6748C77.3754 30.1493 77.6978 30.7536 77.828 31.4113C77.9583 32.069 77.8905 32.7505 77.6333 33.3697C77.3761 33.9888 76.941 34.5178 76.3831 34.8896C75.8251 35.2614 75.1694 35.4594 74.499 35.4585C73.601 35.4573 72.7402 35.0997 72.1056 34.4642C71.4711 33.8288 71.1147 32.9675 71.1147 32.0695ZM69.9524 52.1419C67.2786 49.9474 64.8312 47.4906 62.647 44.8085C64.8839 42.3235 67.3142 40.0197 69.915 37.9185C70.0462 37.8106 70.1549 37.678 70.2348 37.5281C70.3147 37.3782 70.3643 37.2141 70.3808 37.045C70.3972 36.876 70.3802 36.7053 70.3308 36.5428C70.2813 36.3803 70.2003 36.2292 70.0924 36.098C69.9845 35.9668 69.8518 35.8582 69.702 35.7783C69.5521 35.6984 69.3879 35.6488 69.2189 35.6323C69.0498 35.6158 68.8792 35.6328 68.7167 35.6823C68.5542 35.7317 68.4031 35.8127 68.2719 35.9206C65.7161 37.9927 63.3165 40.2504 61.0925 42.6752C58.8612 39.2862 58.1097 36.3781 59.1927 34.5109C60.2756 32.6437 63.1044 31.8315 67.2683 32.0789C67.609 32.0966 67.943 31.9789 68.1973 31.7514C68.4517 31.524 68.6058 31.2052 68.6261 30.8646C68.6465 30.524 68.5313 30.1892 68.3058 29.9331C68.0803 29.677 67.7628 29.5204 67.4223 29.4975C62.1568 29.1847 58.5532 30.4684 56.9474 33.2319C55.9484 34.9684 55.3556 38.0726 58.2404 42.9973C58.5718 43.5668 58.9453 44.1503 59.3561 44.7384C55.3463 49.7799 53.9925 54.1397 55.7104 57.1133C57.0081 59.3585 59.8042 60.5022 63.9073 60.5022C65.4353 60.4913 66.9601 60.3618 68.4679 60.1148C68.8072 60.0615 69.1113 59.8757 69.3136 59.5982C69.5158 59.3207 69.5995 58.9742 69.5463 58.635C69.493 58.2958 69.3072 57.9916 69.0297 57.7894C68.7522 57.5872 68.4057 57.5035 68.0665 57.5567C62.7543 58.3876 59.0713 57.7528 57.9557 55.8202C56.9894 54.1491 57.7876 51.0215 60.9665 46.867C63.1746 49.5168 65.6267 51.9533 68.2906 54.1444C68.5226 54.3412 68.8172 54.4487 69.1215 54.4478C69.3877 54.4487 69.6477 54.3674 69.866 54.215C70.0842 54.0626 70.2502 53.8465 70.3411 53.5963C70.432 53.3461 70.4434 53.0739 70.3738 52.8169C70.3043 52.56 70.1571 52.3307 69.9524 52.1605V52.1419ZM73.7101 37.9979C73.5397 37.9966 73.3708 38.0292 73.2131 38.0937C73.0554 38.1582 72.9121 38.2533 72.7914 38.3736C72.6707 38.4938 72.5751 38.6368 72.51 38.7943C72.4449 38.9517 72.4118 39.1205 72.4124 39.2909V39.5383C72.4124 43.058 72.5804 46.5403 72.9072 49.9059C72.9384 50.2262 73.0876 50.5234 73.3257 50.7399C73.5637 50.9564 73.8738 51.0768 74.1956 51.0776H74.3216C74.6603 51.0433 74.972 50.8772 75.1894 50.6153C75.4068 50.3533 75.5126 50.0164 75.4839 49.6772C75.1665 46.4096 75.0171 42.9926 75.0171 39.557V39.3189C75.0209 39.1458 74.9898 38.9737 74.9255 38.8129C74.8613 38.6521 74.7653 38.5059 74.6433 38.383C74.5213 38.2601 74.3758 38.1631 74.2154 38.0977C74.0551 38.0324 73.8832 38 73.7101 38.0025V37.9979ZM93.1476 47.9547C89.4503 50.0273 85.6312 51.8746 81.711 53.4862C81.4337 53.6006 81.2045 53.8076 81.0626 54.0718C80.9206 54.3361 80.8746 54.6414 80.9324 54.9358C80.9901 55.2302 81.1481 55.4955 81.3795 55.6865C81.6108 55.8776 81.9011 55.9825 82.2011 55.9836C82.3693 55.9826 82.5357 55.9494 82.6913 55.8856C86.707 54.2335 90.6197 52.3411 94.4079 50.2186C94.6877 50.0412 94.889 49.7634 94.9706 49.4423C95.0522 49.1212 95.0079 48.781 94.8467 48.4916C94.6856 48.2021 94.4198 47.9852 94.1039 47.8854C93.7879 47.7855 93.4458 47.8103 93.1476 47.9547ZM122.827 18.3644C120.875 14.9894 115.633 14.1072 107.656 15.8156C104.685 16.4706 101.764 17.3315 98.9125 18.3924C98.4104 16.1668 97.7744 13.9735 97.008 11.8245C94.3099 4.41643 90.7715 0.5 86.7524 0.5C79.5544 0.5 75.1665 12.9588 73.4533 24.6194C73.4038 24.9593 73.4913 25.3049 73.6966 25.5802C73.9019 25.8555 74.2082 26.038 74.548 26.0875C74.8878 26.137 75.2334 26.0495 75.5087 25.8443C75.7841 25.639 75.9665 25.3327 76.0161 24.9929C77.9066 12.0953 82.3225 3.09073 86.7524 3.09073C89.5019 3.09073 92.354 6.59638 94.5526 12.7068C95.3208 14.8718 95.9538 17.0824 96.4478 19.326C91.6614 21.2581 87.0189 23.5294 82.5559 26.1225C81.7904 26.5893 81.0061 27.0281 80.2219 27.5229C80.0766 27.6112 79.9502 27.7272 79.8497 27.8644C79.7493 28.0015 79.6768 28.1571 79.6365 28.3223C79.5962 28.4874 79.5888 28.6589 79.6148 28.8269C79.6407 28.9949 79.6995 29.1561 79.7878 29.3014C79.8761 29.4467 79.9921 29.5732 80.1292 29.6736C80.2664 29.7741 80.422 29.8465 80.5871 29.8868C80.7523 29.9271 80.9238 29.9345 81.0918 29.9086C81.2598 29.8826 81.421 29.8238 81.5663 29.7356C82.3365 29.2688 83.1021 28.802 83.8489 28.3818C88.0706 25.9276 92.4564 23.7675 96.9753 21.9167C97.9169 27.1562 98.4228 32.4647 98.4877 37.7878C98.4926 38.1275 98.631 38.4516 98.873 38.6901C99.1149 38.9286 99.441 39.0622 99.7808 39.0622H99.8041C100.147 39.0548 100.473 38.9124 100.712 38.666C100.95 38.4195 101.082 38.0888 101.078 37.7458C101.01 32.1181 100.457 26.5067 99.426 20.9738C110.536 16.8659 118.77 16.5765 120.563 19.6807C121.543 21.3799 120.679 24.2787 118.131 27.8357C115.358 31.6774 110.9 35.9766 105.224 40.1778C105.087 40.2793 104.972 40.4066 104.885 40.5525C104.798 40.6985 104.74 40.8601 104.715 41.0283C104.691 41.1965 104.699 41.3679 104.741 41.5327C104.782 41.6976 104.856 41.8526 104.958 41.989C105.059 42.1254 105.186 42.2405 105.332 42.3277C105.478 42.4148 105.64 42.4724 105.808 42.4971C105.976 42.5219 106.148 42.5132 106.312 42.4717C106.477 42.4301 106.632 42.3565 106.769 42.2551C112.66 37.8672 117.314 33.3859 120.231 29.3201C122.481 26.1739 124.75 21.7393 122.827 18.3644ZM106.843 47.8613C106.583 47.6372 106.245 47.5256 105.903 47.551C105.56 47.5764 105.242 47.7367 105.018 47.9967C104.794 48.2567 104.683 48.595 104.708 48.9373C104.733 49.2796 104.894 49.5978 105.154 49.8219C113.089 56.6418 117.104 63.4757 115.171 66.8226C113.836 69.1566 109.635 69.8708 103.646 68.8392C101.407 68.4402 99.1983 67.8865 97.036 67.1821C98.674 62.3926 99.7838 57.4385 100.346 52.4079C100.388 52.0675 100.293 51.7242 100.082 51.4537C99.8708 51.1832 99.561 51.0076 99.2206 50.9655C98.8801 50.9234 98.5369 51.0183 98.2664 51.2293C97.9959 51.4403 97.8203 51.75 97.7782 52.0905C97.2368 56.9447 96.1661 61.7251 94.5853 66.3465C90.1337 64.6933 85.8313 62.6631 81.725 60.2781C81.429 60.1299 81.0874 60.1004 80.7703 60.1957C80.4533 60.291 80.1846 60.5039 80.0194 60.7909C79.8541 61.0778 79.8048 61.417 79.8815 61.7391C79.9582 62.0612 80.1551 62.3418 80.432 62.5234C84.6451 64.9686 89.0582 67.0518 93.6237 68.7505C93.4836 69.0679 93.3436 69.376 93.1989 69.6841C91.2383 73.7593 88.9557 75.9999 86.7758 75.9999C83.6202 75.9999 80.376 71.4066 78.1027 63.7138C78.0542 63.5507 77.9742 63.3988 77.867 63.2667C77.7599 63.1346 77.6278 63.0248 77.4782 62.9438C77.3287 62.8627 77.1646 62.8119 76.9954 62.7943C76.8263 62.7766 76.6553 62.7924 76.4922 62.8409C76.3291 62.8893 76.1772 62.9694 76.0451 63.0765C75.913 63.1836 75.8033 63.3158 75.7222 63.4653C75.6412 63.6148 75.5903 63.7789 75.5727 63.9481C75.555 64.1172 75.5709 64.2883 75.6193 64.4513C78.3174 73.5679 82.2805 78.5906 86.7758 78.5906C90.0433 78.5906 93.0775 75.8972 95.5329 70.8091C95.7196 70.4217 95.9017 70.0155 96.079 69.6048C98.4098 70.3709 100.792 70.9715 103.207 71.4019C104.926 71.7051 106.667 71.8612 108.412 71.8687C112.856 71.8687 115.983 70.585 117.412 68.1063C120.086 63.4477 116.133 55.8762 106.82 47.8613H106.843ZM94.8187 39.3283L94.0018 38.8615C90.1291 36.6131 86.0886 34.667 81.9164 33.0405C81.6003 32.9367 81.2565 32.9583 80.9559 33.1008C80.6553 33.2432 80.4209 33.4957 80.301 33.806C80.1812 34.1164 80.1852 34.4609 80.312 34.7684C80.4389 35.0759 80.679 35.3229 80.9828 35.4585C85.0291 37.036 88.9465 38.926 92.6994 41.1114L93.493 41.5782C93.6915 41.6981 93.9192 41.7611 94.1512 41.7603C94.4441 41.7734 94.7328 41.6866 94.9698 41.514C95.2069 41.3415 95.3783 41.0935 95.4559 40.8108C95.5336 40.528 95.5128 40.2273 95.397 39.9579C95.2812 39.6885 95.0773 39.4665 94.8187 39.3283ZM78.6815 56.9825C78.6815 56.3132 78.483 55.6589 78.1111 55.1023C77.7393 54.5458 77.2107 54.112 76.5923 53.8559C75.9739 53.5997 75.2934 53.5327 74.637 53.6633C73.9805 53.7939 73.3775 54.1162 72.9042 54.5895C72.4309 55.0628 72.1085 55.6658 71.9779 56.3223C71.8474 56.9788 71.9144 57.6593 72.1705 58.2777C72.4267 58.8961 72.8605 59.4246 73.417 59.7965C73.9735 60.1683 74.6278 60.3668 75.2972 60.3668C76.1948 60.3668 77.0556 60.0103 77.6902 59.3756C78.3249 58.7409 78.6815 57.8801 78.6815 56.9825ZM103.184 45.0325C103.185 44.3621 102.987 43.7064 102.615 43.1484C102.243 42.5905 101.714 42.1554 101.095 41.8982C100.476 41.641 99.7942 41.5732 99.1365 41.7034C98.4788 41.8337 97.8745 42.1561 97.4001 42.6299C96.9256 43.1036 96.6024 43.7075 96.4713 44.365C96.3401 45.0225 96.407 45.7041 96.6633 46.3237C96.9197 46.9432 97.3541 47.4728 97.9115 47.8453C98.4689 48.2179 99.1243 48.4168 99.7948 48.4168C100.241 48.4168 100.682 48.3288 101.094 48.1579C101.506 47.9871 101.88 47.7366 102.194 47.4209C102.509 47.1052 102.759 46.7305 102.928 46.3183C103.098 45.906 103.185 45.4643 103.184 45.0185V45.0325Z" fill="url(#paint0_linear)"/>
<path d="M120.666 88.8649C128.027 88.8649 133.339 94.2424 133.339 100.852C133.339 107.462 128.027 112.84 120.666 112.84H112.894C112.77 112.84 112.651 112.79 112.563 112.703C112.476 112.615 112.427 112.497 112.427 112.373V89.313C112.427 89.1892 112.476 89.0705 112.563 88.9829C112.651 88.8954 112.77 88.8462 112.894 88.8462L120.666 88.8649ZM117.225 107.593C117.225 107.717 117.275 107.835 117.362 107.923C117.45 108.01 117.568 108.06 117.692 108.06H120.67C125.124 108.06 128.205 105.147 128.205 100.866C128.205 96.5857 125.124 93.6729 120.67 93.6729H117.692C117.568 93.6729 117.45 93.7221 117.362 93.8096C117.275 93.8972 117.225 94.0159 117.225 94.1397V107.593Z" fill="url(#paint1_linear)"/>
<path d="M152.146 89.313V93.2061C152.146 93.3299 152.097 93.4486 152.01 93.5362C151.922 93.6237 151.803 93.6729 151.68 93.6729H140.943C140.82 93.6729 140.701 93.7221 140.613 93.8096C140.526 93.8972 140.477 94.0159 140.477 94.1397V97.5193C140.477 97.6431 140.526 97.7618 140.613 97.8494C140.701 97.9369 140.82 97.9861 140.943 97.9861H148.603C148.727 97.9861 148.846 98.0353 148.934 98.1228C149.021 98.2104 149.07 98.3291 149.07 98.4529V102.346C149.07 102.47 149.021 102.589 148.934 102.676C148.846 102.764 148.727 102.813 148.603 102.813H140.953C140.829 102.813 140.71 102.862 140.623 102.95C140.535 103.037 140.486 103.156 140.486 103.28V107.686C140.486 107.81 140.535 107.929 140.623 108.016C140.71 108.104 140.829 108.153 140.953 108.153H152.039C152.163 108.153 152.282 108.202 152.369 108.29C152.457 108.377 152.506 108.496 152.506 108.62V112.518C152.506 112.641 152.457 112.76 152.369 112.848C152.282 112.935 152.163 112.984 152.039 112.984H136.168C136.044 112.984 135.925 112.935 135.838 112.848C135.75 112.76 135.701 112.641 135.701 112.518V89.313C135.701 89.1892 135.75 89.0705 135.838 88.9829C135.925 88.8954 136.044 88.8462 136.168 88.8462H151.708C151.827 88.8533 151.938 88.9057 152.02 88.9924C152.101 89.0792 152.147 89.1939 152.146 89.313Z" fill="url(#paint2_linear)"/>
<path d="M160.899 89.0564L165.478 95.6896C165.522 95.7467 165.578 95.7929 165.643 95.8248C165.707 95.8566 165.778 95.8732 165.85 95.8732C165.921 95.8732 165.992 95.8566 166.057 95.8248C166.121 95.7929 166.177 95.7467 166.221 95.6896L170.8 89.0564C170.843 88.9975 170.899 88.9496 170.964 88.9164C171.029 88.8831 171.101 88.8655 171.173 88.865H176.042C176.123 88.8696 176.202 88.8953 176.27 88.9394C176.338 88.9836 176.393 89.0448 176.43 89.1169C176.468 89.189 176.485 89.2695 176.482 89.3506C176.479 89.4317 176.454 89.5105 176.411 89.5792L168.942 99.9001C168.888 99.9782 168.859 100.071 168.859 100.166C168.859 100.261 168.888 100.354 168.942 100.432L177.429 112.102C177.472 112.171 177.496 112.249 177.5 112.33C177.503 112.41 177.486 112.491 177.449 112.563C177.413 112.635 177.358 112.696 177.29 112.74C177.223 112.785 177.145 112.811 177.064 112.816H172.2C172.128 112.815 172.058 112.797 171.994 112.764C171.93 112.731 171.874 112.683 171.832 112.625L166.23 104.61C166.186 104.554 166.13 104.508 166.067 104.477C166.003 104.446 165.932 104.429 165.861 104.429C165.79 104.429 165.72 104.446 165.656 104.477C165.592 104.508 165.536 104.554 165.492 104.61L159.891 112.625C159.848 112.683 159.793 112.731 159.729 112.764C159.665 112.797 159.594 112.815 159.522 112.816H154.621C154.54 112.811 154.462 112.785 154.395 112.74C154.327 112.696 154.273 112.635 154.236 112.563C154.199 112.491 154.182 112.41 154.186 112.33C154.189 112.249 154.214 112.171 154.257 112.102L162.748 100.432C162.802 100.354 162.831 100.261 162.831 100.166C162.831 100.071 162.802 99.9782 162.748 99.9001L155.279 89.5792C155.236 89.5108 155.211 89.4324 155.208 89.3517C155.204 89.271 155.222 89.1907 155.258 89.1187C155.295 89.0468 155.35 88.9855 155.417 88.9411C155.485 88.8966 155.562 88.8704 155.643 88.865H160.526C160.599 88.8655 160.67 88.8831 160.735 88.9164C160.8 88.9496 160.856 88.9975 160.899 89.0564Z" fill="url(#paint3_linear)"/>
<path d="M61.0272 95.3207C62.3219 94.4897 63.821 94.0326 65.3591 93.9996C68.0572 93.9996 69.9991 94.7512 71.3201 95.9835C71.4527 96.1034 71.6234 96.1724 71.8019 96.1784C71.9805 96.1843 72.1555 96.1269 72.2957 96.0162C73.8675 94.7697 75.7989 94.0626 77.8039 93.9996C83.4615 93.9996 85.9122 97.2019 85.9122 102.295V111.533C85.911 111.732 85.8308 111.923 85.6891 112.064C85.5474 112.205 85.3558 112.284 85.156 112.284H82.2899C82.0905 112.284 81.8994 112.205 81.7584 112.064C81.6175 111.923 81.5383 111.732 81.5383 111.533V102.775C81.5383 99.7599 80.2173 98.2102 77.6546 98.2102C76.1772 98.2271 74.7643 98.818 73.7148 99.8579C73.6374 99.9294 73.5756 100.016 73.533 100.112C73.4905 100.209 73.4681 100.313 73.4674 100.418V111.523C73.4674 111.723 73.3882 111.914 73.2473 112.055C73.1063 112.196 72.9152 112.275 72.7158 112.275H69.8497C69.7506 112.275 69.6524 112.256 69.5607 112.219C69.4689 112.181 69.3855 112.126 69.3153 112.056C69.245 111.986 69.1892 111.903 69.1511 111.812C69.1131 111.72 69.0935 111.622 69.0935 111.523V102.775C69.0935 99.7599 67.7725 98.2102 65.2097 98.2102C63.7338 98.2273 62.3224 98.8183 61.2746 99.8579C61.1964 99.9287 61.1339 100.015 61.0913 100.112C61.0487 100.208 61.0268 100.313 61.0272 100.418V111.523C61.026 111.723 60.9458 111.914 60.8041 112.055C60.6624 112.196 60.4708 112.275 60.271 112.275H57.4049C57.2055 112.275 57.0144 112.196 56.8734 112.055C56.7325 111.914 56.6533 111.723 56.6533 111.523V95.3207C56.6533 95.222 56.6728 95.1243 56.7105 95.0331C56.7483 94.9419 56.8037 94.859 56.8734 94.7892C56.9432 94.7195 57.0261 94.6641 57.1173 94.6263C57.2084 94.5886 57.3062 94.5691 57.4049 94.5691H60.2757C60.4746 94.5704 60.6651 94.6499 60.8057 94.7906C60.9464 94.9313 61.026 95.1217 61.0272 95.3207Z" fill="white"/>
<path d="M34.9424 109.045C34.941 108.927 34.9123 108.812 34.8585 108.708C34.8048 108.603 34.7276 108.513 34.633 108.444C34.5384 108.375 34.4289 108.328 34.3133 108.309C34.1977 108.289 34.0791 108.296 33.9668 108.33C33.3431 108.527 32.693 108.628 32.039 108.629C30.5312 108.629 29.2102 107.649 29.2102 104.633V99.732C29.2102 99.5314 29.2898 99.3391 29.4317 99.1973C29.5735 99.0554 29.7658 98.9758 29.9664 98.9758H34.1909C34.3902 98.9758 34.5814 98.8966 34.7223 98.7556C34.8633 98.6147 34.9424 98.4235 34.9424 98.2242V95.3207C34.9431 95.2217 34.9241 95.1234 34.8866 95.0317C34.8491 94.94 34.7938 94.8566 34.724 94.7863C34.6541 94.716 34.5711 94.6602 34.4796 94.6222C34.3881 94.5841 34.29 94.5645 34.1909 94.5645H29.9664C29.7658 94.5645 29.5735 94.4849 29.4317 94.343C29.2898 94.2012 29.2102 94.0089 29.2102 93.8083V90.7928C29.2102 90.5935 29.131 90.4023 28.99 90.2614C28.8491 90.1204 28.6579 90.0413 28.4586 90.0413H25.5551C25.357 90.0412 25.1667 90.119 25.0253 90.2578C24.8839 90.3966 24.8026 90.5853 24.7989 90.7835V93.799C24.7995 93.8981 24.7806 93.9963 24.7431 94.088C24.7056 94.1797 24.6503 94.2631 24.5805 94.3334C24.5106 94.4037 24.4276 94.4595 24.3361 94.4975C24.2446 94.5356 24.1465 94.5552 24.0474 94.5552H22.3482C22.2492 94.5552 22.151 94.5748 22.0596 94.6128C21.9681 94.6509 21.885 94.7067 21.8152 94.777C21.7453 94.8472 21.69 94.9306 21.6526 95.0224C21.6151 95.1141 21.5961 95.2123 21.5967 95.3114V98.2149C21.5967 98.4142 21.6759 98.6054 21.8168 98.7463C21.9578 98.8873 22.1489 98.9664 22.3482 98.9664H24.0474C24.1465 98.9664 24.2446 98.986 24.3361 99.0241C24.4276 99.0621 24.5106 99.1179 24.5805 99.1882C24.6503 99.2585 24.7056 99.3419 24.7431 99.4336C24.7806 99.5253 24.7995 99.6236 24.7989 99.7226V104.997C24.7989 109.899 27.2496 112.84 32.039 112.84C32.8437 112.811 33.6411 112.676 34.4103 112.438C34.5651 112.391 34.7005 112.295 34.7963 112.165C34.8922 112.034 34.9435 111.876 34.9424 111.715V109.045Z" fill="white"/>
<path d="M45.2916 93.9904C43.4277 93.9913 41.606 94.5448 40.0568 95.581C38.5075 96.6171 37.3003 98.0894 36.5877 99.8116C35.875 101.534 35.6891 103.429 36.0532 105.257C36.4174 107.084 37.3154 108.763 38.6336 110.081C39.9519 111.398 41.6312 112.296 43.4593 112.659C45.2874 113.022 47.1821 112.835 48.904 112.122C50.6258 111.408 52.0975 110.2 53.1329 108.651C54.1683 107.101 54.7209 105.279 54.7209 103.415C54.7209 102.177 54.477 100.951 54.003 99.8073C53.5291 98.6635 52.8345 97.6243 51.9588 96.7491C51.0832 95.8739 50.0436 95.1798 48.8997 94.7064C47.7557 94.2331 46.5296 93.9897 45.2916 93.9904ZM45.2916 108.615C44.2623 108.619 43.2551 108.317 42.3975 107.748C41.5399 107.179 40.8704 106.368 40.474 105.418C40.0775 104.468 39.9719 103.422 40.1704 102.412C40.369 101.402 40.8627 100.474 41.5892 99.7446C42.3157 99.0155 43.2423 98.5184 44.2515 98.3162C45.2607 98.114 46.3073 98.2159 47.2586 98.609C48.2098 99.002 49.0231 99.6685 49.5953 100.524C50.1676 101.38 50.473 102.386 50.473 103.415C50.473 104.791 49.9277 106.111 48.9566 107.085C47.9854 108.06 46.6675 108.61 45.2916 108.615Z" fill="white"/>
<path d="M92.863 89.9525C92.863 88.697 91.8452 87.6792 90.5897 87.6792C89.3342 87.6792 88.3164 88.697 88.3164 89.9525C88.3164 91.208 89.3342 92.2258 90.5897 92.2258C91.8452 92.2258 92.863 91.208 92.863 89.9525Z" fill="white"/>
<path d="M91.9946 94.5552H89.1332C88.7155 94.5552 88.377 94.8937 88.377 95.3114V111.519C88.377 111.936 88.7155 112.275 89.1332 112.275H91.9946C92.4123 112.275 92.7509 111.936 92.7509 111.519V95.3114C92.7509 94.8937 92.4123 94.5552 91.9946 94.5552Z" fill="white"/>
<path d="M19.0901 94.5551H16.224C16.1241 94.5539 16.025 94.5725 15.9324 94.61C15.8398 94.6475 15.7557 94.7031 15.6848 94.7735C15.614 94.8439 15.5579 94.9278 15.5198 95.0201C15.4817 95.1124 15.4625 95.2114 15.4631 95.3113V95.456C14.0375 94.5494 12.3945 94.0424 10.7059 93.9881C9.01735 93.9339 7.34519 94.3342 5.86432 95.1474C4.38344 95.9606 3.14825 97.1567 2.2879 98.6107C1.42754 100.065 0.973633 101.723 0.973633 103.413C0.973633 105.102 1.42754 106.76 2.2879 108.214C3.14825 109.668 4.38344 110.865 5.86432 111.678C7.34519 112.491 9.01735 112.891 10.7059 112.837C12.3945 112.783 14.0375 112.276 15.4631 111.369V111.523C15.4631 111.723 15.5423 111.914 15.6832 112.055C15.8242 112.196 16.0153 112.275 16.2146 112.275H19.0808C19.2805 112.275 19.4722 112.196 19.6139 112.055C19.7555 111.914 19.8358 111.723 19.837 111.523V95.3113C19.837 95.1124 19.7586 94.9214 19.6188 94.7799C19.479 94.6383 19.289 94.5576 19.0901 94.5551ZM10.417 108.615C9.44119 108.616 8.48475 108.343 7.65703 107.826C6.82931 107.309 6.1637 106.57 5.7363 105.693C5.3089 104.815 5.13695 103.836 5.24011 102.865C5.34327 101.895 5.71738 100.973 6.31967 100.205C6.92196 99.4376 7.72812 98.8548 8.646 98.5235C9.56388 98.1923 10.5564 98.126 11.5102 98.3323C12.464 98.5385 13.3405 99.009 14.0395 99.6899C14.7385 100.371 15.2318 101.235 15.4631 102.183V104.647C15.1865 105.778 14.5392 106.782 13.6246 107.502C12.7099 108.221 11.5806 108.613 10.417 108.615Z" fill="white"/>
<path d="M109.187 108.545C109.186 108.419 109.154 108.295 109.094 108.184C109.033 108.073 108.945 107.979 108.839 107.911C108.733 107.843 108.611 107.802 108.485 107.793C108.359 107.784 108.233 107.807 108.118 107.859C107.034 108.357 105.856 108.616 104.663 108.62C101.396 108.62 99.3466 106.319 99.3466 103.415C99.3466 100.512 101.386 98.2103 104.663 98.2103C105.856 98.214 107.034 98.4734 108.118 98.9712C108.232 99.0246 108.358 99.0482 108.484 99.0399C108.611 99.0316 108.733 98.9916 108.839 98.9237C108.946 98.8558 109.033 98.762 109.094 98.6512C109.155 98.5404 109.187 98.4161 109.187 98.2897V95.4609C109.188 95.3114 109.144 95.1651 109.061 95.041C108.977 94.9169 108.859 94.8208 108.72 94.7654C107.43 94.2443 106.05 93.9811 104.659 93.9905C98.8144 93.9905 94.856 98.1917 94.856 103.415C94.856 108.639 98.8144 112.84 104.659 112.84C106.05 112.851 107.429 112.589 108.72 112.07C108.859 112.013 108.978 111.916 109.061 111.791C109.145 111.667 109.188 111.519 109.187 111.369V108.545Z" fill="white"/>
<defs>
<linearGradient id="paint0_linear" x1="54.9822" y1="39.5383" x2="123.541" y2="39.5383" gradientUnits="userSpaceOnUse">
<stop offset="0.02" stop-color="#2ABCF1"/>
<stop offset="1" stop-color="#6A4DE3"/>
</linearGradient>
<linearGradient id="paint1_linear" x1="110.5" y1="88" x2="175" y2="119.5" gradientUnits="userSpaceOnUse">
<stop offset="0.02" stop-color="#2ABCF1"/>
<stop offset="1" stop-color="#6A4DE3"/>
</linearGradient>
<linearGradient id="paint2_linear" x1="113" y1="77.5" x2="168" y2="118" gradientUnits="userSpaceOnUse">
<stop offset="0.02" stop-color="#2ABCF1"/>
<stop offset="1" stop-color="#6A4DE3"/>
</linearGradient>
<linearGradient id="paint3_linear" x1="113.5" y1="74" x2="181" y2="116.5" gradientUnits="userSpaceOnUse">
<stop offset="0.02" stop-color="#2ABCF1"/>
<stop offset="1" stop-color="#6A4DE3"/>
</linearGradient>
</defs>
</svg>
