<svg width="188" height="52" viewBox="0 0 188 52" fill="none" xmlns="http://www.w3.org/2000/svg">
<path d="M10.6618 20.8605C10.6618 20.4194 10.7931 19.9882 11.0393 19.6214C11.2854 19.2546 11.6353 18.9688 12.0446 18.8C12.4539 18.6312 12.9044 18.587 13.3389 18.6731C13.7734 18.7591 14.1726 18.9715 14.4859 19.2834C14.7991 19.5954 15.0125 19.9927 15.0989 20.4254C15.1854 20.858 15.141 21.3064 14.9715 21.714C14.8019 22.1215 14.5148 22.4698 14.1464 22.7149C13.778 22.96 13.3449 23.0908 12.9019 23.0908C12.6076 23.0912 12.3161 23.0338 12.0441 22.9219C11.7721 22.81 11.525 22.6457 11.3168 22.4385C11.1087 22.2313 10.9438 21.9853 10.8313 21.7145C10.7189 21.4437 10.6613 21.1535 10.6618 20.8605ZM9.89303 34.062C8.12646 32.6192 6.50908 31.0043 5.06497 29.2413C6.54244 27.6043 8.14878 26.0872 9.86868 24.7046C10.0347 24.5585 10.1373 24.354 10.155 24.1341C10.1726 23.9142 10.1039 23.6961 9.96334 23.5256C9.82274 23.3551 9.62121 23.2456 9.40115 23.22C9.18109 23.1945 8.95964 23.2549 8.78341 23.3886C7.09325 24.7516 5.50734 26.2379 4.03883 27.8353C2.56398 25.6085 2.08743 23.6933 2.78312 22.4639C3.4788 21.2345 5.37107 20.7012 8.12251 20.8605C8.34573 20.8682 8.56314 20.7887 8.7283 20.639C8.89346 20.4893 8.99329 20.2813 9.00646 20.0593C9.01963 19.8373 8.9451 19.619 8.79878 19.451C8.65246 19.283 8.44596 19.1786 8.22338 19.1601C4.74495 18.9557 2.34832 19.8008 1.30131 21.6085C0.636928 22.7479 0.257779 24.7912 2.15352 28.0327C2.37266 28.4067 2.61963 28.7911 2.89095 29.1755C0.240387 32.4967 -0.653569 35.3642 0.483877 37.3243C1.33957 38.7996 3.19009 39.5615 5.9137 39.5615C6.92291 39.5529 7.92997 39.4672 8.92602 39.3053C9.14667 39.2665 9.34325 39.1431 9.47353 38.9616C9.60381 38.7802 9.6574 38.555 9.62278 38.3346C9.58816 38.1143 9.4681 37.9162 9.28839 37.783C9.10868 37.6497 8.88366 37.592 8.66166 37.6222C5.15193 38.1659 2.71703 37.7503 1.9796 36.4793C1.34305 35.3815 1.86829 33.3209 3.96926 30.592C5.42414 32.3326 7.04065 33.9327 8.79732 35.3711C8.95081 35.4981 9.1439 35.5678 9.34344 35.5685C9.51945 35.5689 9.69131 35.5152 9.83558 35.4148C9.97984 35.3144 10.0895 35.1721 10.1496 35.0074C10.2097 34.8427 10.2173 34.6635 10.1714 34.4944C10.1255 34.3252 10.0283 34.1742 9.89303 34.062ZM12.3766 24.7565C12.15 24.7574 11.9328 24.8475 11.7726 25.0071C11.6123 25.1666 11.5218 25.3828 11.5209 25.6085V25.7678C11.5209 28.0846 11.6322 30.3807 11.8479 32.5902C11.8678 32.8005 11.9659 32.9959 12.1228 33.1381C12.2798 33.2803 12.4844 33.3591 12.6966 33.359H12.7801C12.8936 33.3503 13.0042 33.3192 13.1054 33.2674C13.2066 33.2157 13.2965 33.1443 13.3697 33.0576C13.4429 32.9708 13.498 32.8704 13.5317 32.7622C13.5655 32.654 13.5772 32.5402 13.5662 32.4274C13.3367 30.2699 13.2184 28.0292 13.2184 25.7678V25.6119C13.2203 25.3875 13.1327 25.1715 12.975 25.0111C12.8172 24.8508 12.602 24.7593 12.3766 24.7565ZM25.2259 31.3088C22.7826 32.673 20.2584 33.8885 17.6673 34.9486C17.457 35.0336 17.2892 35.1982 17.2008 35.4064C17.1124 35.6145 17.1107 35.8491 17.196 36.0585C17.2813 36.268 17.4467 36.435 17.6558 36.5231C17.8649 36.6111 18.1005 36.6128 18.3108 36.5278C20.9658 35.4405 23.5527 34.1949 26.0573 32.798C26.2524 32.6866 26.3957 32.5031 26.456 32.2873C26.5163 32.0716 26.4889 31.8408 26.3796 31.645C26.2703 31.4493 26.0879 31.3042 25.872 31.2413C25.6561 31.1784 25.424 31.2026 25.2259 31.3088ZM44.8234 11.8563C43.5364 9.63293 40.0684 9.05112 34.7951 10.1766C32.8325 10.6028 30.902 11.164 29.0174 11.8563C28.6855 10.3932 28.2662 8.9511 27.7617 7.53772C25.9912 2.65813 23.6537 0.081543 20.9962 0.081543C16.2412 0.081543 13.3436 8.27883 12.2097 15.9497C12.1764 16.1734 12.2338 16.401 12.3692 16.5825C12.5046 16.7641 12.7068 16.8846 12.9314 16.9177C13.1561 16.9507 13.3847 16.8936 13.567 16.7588C13.7494 16.6241 13.8704 16.4227 13.9037 16.1991C15.1524 7.70049 18.0882 1.78542 20.9962 1.78542C22.8154 1.78542 24.6937 4.09188 26.1512 8.1126C26.6593 9.53745 27.0775 10.9925 27.4034 12.4693C24.241 13.7423 21.1734 15.2376 18.2239 16.9437C17.7195 17.2311 17.2012 17.5393 16.6829 17.851C16.5868 17.909 16.503 17.9853 16.4365 18.0755C16.3699 18.1657 16.3219 18.268 16.2951 18.3767C16.2683 18.4854 16.2632 18.5983 16.2802 18.709C16.2972 18.8196 16.336 18.9258 16.3942 19.0215C16.4525 19.1173 16.5291 19.2007 16.6197 19.2669C16.7103 19.3332 16.8131 19.381 16.9223 19.4077C17.0314 19.4344 17.1448 19.4394 17.256 19.4225C17.3671 19.4055 17.4738 19.367 17.5699 19.309C18.0778 19.0008 18.5856 18.6995 19.0796 18.419C21.8681 16.8038 24.7656 15.3828 27.7513 14.1662C28.3752 17.6119 28.7103 21.1032 28.7531 24.6042C28.7567 24.8277 28.8485 25.0408 29.0086 25.1976C29.1686 25.3544 29.3842 25.4423 29.6088 25.4422C29.7211 25.4404 29.8321 25.4166 29.9352 25.3721C30.0383 25.3276 30.1316 25.2633 30.2098 25.1829C30.288 25.1026 30.3495 25.0076 30.3908 24.9035C30.4321 24.7995 30.4524 24.6883 30.4505 24.5765C30.4053 20.8732 30.041 17.1806 29.3618 13.5394C36.7013 10.8381 42.145 10.6476 43.3277 12.6909C43.9747 13.8095 43.4042 15.7142 41.7206 18.0553C39.891 20.5973 36.9413 23.4094 33.1881 26.1937C33.044 26.301 32.9376 26.4508 32.8839 26.6217C32.8302 26.7926 32.8319 26.9761 32.8889 27.1459C32.9459 27.3158 33.0553 27.4635 33.2014 27.568C33.3475 27.6724 33.523 27.7284 33.7029 27.7279C33.8862 27.7279 34.0645 27.6683 34.2107 27.5582C38.1031 24.6734 41.1676 21.7297 43.112 19.0493C44.6112 16.9852 46.1104 14.0588 44.8234 11.8563ZM34.2594 31.25C34.0874 31.1025 33.8635 31.0292 33.6372 31.0461C33.4108 31.063 33.2005 31.1687 33.0524 31.34C32.9043 31.5113 32.8307 31.7341 32.8476 31.9595C32.8646 32.1849 32.9708 32.3943 33.1428 32.5417C38.3814 37.0438 41.0424 41.5251 39.7519 43.7277C38.8683 45.2515 36.0926 45.7329 32.1376 45.0541C30.6576 44.7932 29.1978 44.4299 27.7687 43.9667C28.8514 40.8141 29.5851 37.5533 29.9566 34.2421C29.9756 34.0224 29.9083 33.8038 29.7688 33.6325C29.6292 33.4611 29.4284 33.3503 29.2085 33.3234C28.9886 33.2965 28.7668 33.3555 28.5897 33.4881C28.4126 33.6207 28.2941 33.8165 28.2591 34.0343C27.9044 37.2251 27.1999 40.3676 26.1582 43.4056C23.2164 42.3197 20.3734 40.985 17.6604 39.4161C17.4641 39.3077 17.233 39.2804 17.0168 39.3401C16.8005 39.3997 16.6165 39.5416 16.5043 39.735C16.3921 39.9285 16.3607 40.1581 16.4169 40.3744C16.473 40.5907 16.6123 40.7763 16.8047 40.8914C19.5898 42.5001 22.5071 43.8707 25.5251 44.9883C25.4312 45.1961 25.3372 45.4004 25.2433 45.5978C23.9459 48.2783 22.4362 49.7536 20.9962 49.7536C18.9091 49.7536 16.7699 46.7303 15.2637 41.6706C15.2376 41.5573 15.1884 41.4505 15.1192 41.3568C15.0501 41.2632 14.9624 41.1846 14.8616 41.1259C14.7608 41.0672 14.649 41.0297 14.5331 41.0157C14.4171 41.0017 14.2996 41.0114 14.1876 41.0443C14.0756 41.0772 13.9715 41.1326 13.8818 41.207C13.7921 41.2815 13.7187 41.3734 13.666 41.4772C13.6134 41.5809 13.5826 41.6943 13.5756 41.8104C13.5686 41.9264 13.5856 42.0427 13.6254 42.152C15.4063 48.1536 18.0256 51.4575 20.9962 51.4575C23.1598 51.4575 25.1703 49.6878 26.7843 46.3389C26.9095 46.0827 27.0278 45.816 27.1321 45.5459C28.6725 46.0481 30.2463 46.4427 31.8419 46.7268C32.9774 46.9309 34.1283 47.0387 35.2821 47.0489C38.2213 47.0489 40.2875 46.2039 41.2337 44.5727C43.0251 41.5009 40.4162 36.5174 34.2594 31.25ZM26.3251 25.6292L25.7825 25.3141C23.2188 23.834 20.5441 22.5534 17.7821 21.4839C17.5712 21.4065 17.3383 21.4148 17.1335 21.507C16.9288 21.5992 16.7687 21.7679 16.6878 21.9767C16.6069 22.1855 16.6118 22.4175 16.7014 22.6227C16.7909 22.8279 16.958 22.9898 17.1664 23.0734C19.8461 24.1098 22.4407 25.3522 24.9268 26.7894L25.452 27.0976C25.5841 27.1742 25.734 27.2148 25.8868 27.2154C26.075 27.2163 26.2581 27.1555 26.408 27.0423C26.5579 26.9292 26.6662 26.77 26.7161 26.5894C26.766 26.4088 26.7548 26.2169 26.6841 26.0434C26.6134 25.8698 26.4872 25.7242 26.3251 25.6292ZM15.6533 37.2378C15.6533 36.7973 15.5221 36.3668 15.2764 36.0006C15.0306 35.6344 14.6813 35.349 14.2726 35.1804C13.8639 35.0119 13.4142 34.9678 12.9803 35.0537C12.5465 35.1396 12.1479 35.3517 11.8351 35.6632C11.5223 35.9746 11.3093 36.3714 11.223 36.8033C11.1367 37.2353 11.181 37.683 11.3503 38.0899C11.5196 38.4968 11.8063 38.8446 12.1741 39.0893C12.5419 39.334 12.9743 39.4646 13.4167 39.4646C14.0099 39.4646 14.5788 39.2299 14.9982 38.8123C15.4177 38.3947 15.6533 37.8283 15.6533 37.2378ZM31.8558 29.3729C31.8572 28.9314 31.7269 28.4994 31.4814 28.1316C31.236 27.7639 30.8864 27.4769 30.477 27.3072C30.0676 27.1374 29.6168 27.0924 29.1817 27.178C28.7466 27.2635 28.3468 27.4758 28.033 27.7877C27.7191 28.0997 27.5054 28.4974 27.4187 28.9305C27.3321 29.3635 27.3766 29.8124 27.5465 30.2203C27.7163 30.6282 28.004 30.9766 28.373 31.2216C28.742 31.4666 29.1757 31.597 29.6192 31.5963C30.2118 31.5963 30.7802 31.3621 31.1995 30.9453C31.6189 30.5284 31.8549 29.9629 31.8558 29.3729Z" fill="white"/>
<path d="M142.654 16.788C148.484 16.788 152.686 21.0234 152.686 26.2354C152.686 31.4475 148.484 35.6829 142.654 35.6829H136.741C136.582 35.6829 136.43 35.6202 136.318 35.5085C136.206 35.3968 136.143 35.2453 136.143 35.0873V17.3975C136.143 17.2395 136.206 17.088 136.318 16.9763C136.43 16.8646 136.582 16.8018 136.741 16.8018L142.654 16.788ZM139.941 31.9046H142.654C146.178 31.9046 148.62 29.6086 148.62 26.2354C148.62 22.8623 146.185 20.5663 142.654 20.5663H139.941V31.9046Z" fill="white"/>
<path d="M167.577 17.3975V19.9845C167.576 20.0628 167.558 20.1399 167.526 20.2114C167.495 20.283 167.449 20.3477 167.392 20.4017C167.335 20.4557 167.268 20.4981 167.195 20.5263C167.122 20.5546 167.044 20.5682 166.965 20.5663H158.356V23.9394H164.53C164.689 23.9394 164.841 24.0022 164.953 24.1139C165.065 24.2256 165.129 24.3771 165.129 24.5351V27.1255C165.129 27.2835 165.065 27.435 164.953 27.5467C164.841 27.6585 164.689 27.7212 164.53 27.7212H158.356V31.9047H167.25C167.409 31.9047 167.561 31.9675 167.673 32.0792C167.786 32.1909 167.849 32.3424 167.849 32.5004V35.0873C167.849 35.2453 167.786 35.3968 167.673 35.5085C167.561 35.6202 167.409 35.683 167.25 35.683H155.159C155.001 35.683 154.848 35.6202 154.736 35.5085C154.624 35.3968 154.561 35.2453 154.561 35.0873V17.3975C154.561 17.2396 154.624 17.0881 154.736 16.9763C154.848 16.8646 155.001 16.8019 155.159 16.8019H166.986C167.143 16.8037 167.294 16.8673 167.405 16.9788C167.515 17.0903 167.577 17.2408 167.577 17.3975Z" fill="white"/>
<path d="M174.576 17.0513L178.423 22.5923L182.27 17.0513C182.325 16.9719 182.398 16.9071 182.483 16.8624C182.569 16.8177 182.664 16.7946 182.761 16.795H186.027C186.138 16.7934 186.248 16.8229 186.343 16.8802C186.438 16.9375 186.516 17.0203 186.566 17.1192C186.616 17.2181 186.638 17.3291 186.628 17.4395C186.618 17.5499 186.577 17.6554 186.51 17.7439L180.729 25.7092L187.321 34.7515C187.386 34.8403 187.424 34.9452 187.433 35.0546C187.442 35.164 187.42 35.2737 187.37 35.3715C187.32 35.4693 187.244 35.5515 187.15 35.6089C187.056 35.6663 186.948 35.6967 186.837 35.6969H183.575C183.478 35.6971 183.384 35.6742 183.298 35.6302C183.213 35.5862 183.139 35.5224 183.084 35.4441L178.423 28.8156L173.762 35.4441C173.707 35.5224 173.633 35.5862 173.548 35.6302C173.462 35.6742 173.368 35.6971 173.271 35.6969H170.009C169.898 35.6974 169.79 35.6674 169.695 35.6102C169.601 35.5531 169.524 35.471 169.474 35.373C169.423 35.2751 169.401 35.1652 169.409 35.0555C169.418 34.9458 169.457 34.8405 169.522 34.7515L176.131 25.7092L170.332 17.7439C170.268 17.6548 170.23 17.5499 170.222 17.4408C170.214 17.3316 170.237 17.2223 170.287 17.125C170.337 17.0276 170.414 16.946 170.508 16.889C170.601 16.832 170.709 16.8019 170.819 16.8019H174.082C174.178 16.8005 174.274 16.8224 174.36 16.8659C174.446 16.9093 174.52 16.9729 174.576 17.0513Z" fill="white"/>
<path d="M95.445 21.8787C96.4713 21.2238 97.6595 20.8642 98.8782 20.8397C101.264 20.8397 102.906 21.5843 103.95 22.7722C105.262 21.5861 106.954 20.9015 108.726 20.8397C113.202 20.8397 115.143 23.3678 115.143 27.3782V34.6508C115.143 34.729 115.128 34.8065 115.098 34.8787C115.068 34.951 115.024 35.0167 114.968 35.072C114.913 35.1273 114.847 35.1712 114.774 35.2011C114.701 35.231 114.624 35.2464 114.545 35.2464H112.277C112.199 35.2464 112.121 35.231 112.049 35.201C111.976 35.1711 111.911 35.1271 111.855 35.0718C111.8 35.0164 111.756 34.9507 111.727 34.8785C111.697 34.8062 111.682 34.7288 111.682 34.6508V27.7487C111.682 25.373 110.639 24.154 108.607 24.154C107.982 24.1645 107.366 24.3017 106.796 24.5571C106.226 24.8125 105.715 25.1809 105.292 25.6397V34.6439C105.292 34.8012 105.23 34.9522 105.118 35.0638C105.007 35.1754 104.856 35.2386 104.698 35.2395H102.43C102.271 35.2395 102.119 35.1768 102.007 35.065C101.894 34.9533 101.831 34.8018 101.831 34.6439V27.7487C101.831 25.373 100.788 24.154 98.7565 24.154C98.132 24.1642 97.5162 24.3012 96.9468 24.5567C96.3774 24.8121 95.8663 25.1807 95.445 25.6397V34.6439C95.445 34.8018 95.382 34.9533 95.2698 35.065C95.1576 35.1768 95.0054 35.2395 94.8467 35.2395H92.5788C92.4201 35.2395 92.2679 35.1768 92.1557 35.065C92.0435 34.9533 91.9805 34.8018 91.9805 34.6439V21.8752C91.9805 21.7971 91.996 21.7199 92.0261 21.6478C92.0562 21.5757 92.1003 21.5103 92.1559 21.4552C92.2115 21.4002 92.2775 21.3566 92.3501 21.3271C92.4226 21.2975 92.5004 21.2825 92.5788 21.283H94.8467C95.0054 21.283 95.1576 21.3458 95.2698 21.4575C95.382 21.5692 95.445 21.7207 95.445 21.8787Z" fill="white"/>
<path d="M74.7866 32.6909C74.7863 32.5971 74.7637 32.5048 74.7208 32.4213C74.6778 32.3379 74.6156 32.2657 74.5394 32.2107C74.4631 32.1557 74.3748 32.1194 74.2818 32.1047C74.1888 32.0901 74.0936 32.0975 74.004 32.1264C73.514 32.2779 73.0039 32.355 72.4909 32.355C71.3082 32.355 70.2647 31.5965 70.2647 29.207V24.7499H74.2057C74.3614 24.7454 74.5091 24.6806 74.6176 24.5694C74.7261 24.4582 74.7867 24.3092 74.7866 24.1542V21.8685C74.7866 21.7111 74.7241 21.5602 74.6126 21.4485C74.5012 21.3369 74.3499 21.2738 74.1918 21.2729H70.2647V18.3015C70.2647 18.1435 70.2017 17.992 70.0895 17.8803C69.9773 17.7686 69.8251 17.7058 69.6664 17.7058H67.3706C67.2144 17.7094 67.0658 17.7738 66.9565 17.8851C66.8473 17.9964 66.7862 18.1459 66.7863 18.3015V21.2729H64.8453C64.6872 21.2738 64.5359 21.3369 64.4245 21.4485C64.313 21.5602 64.2505 21.7111 64.2505 21.8685V24.1542C64.2505 24.3116 64.313 24.4626 64.4245 24.5742C64.5359 24.6858 64.6872 24.749 64.8453 24.7499H66.7863V29.5186C66.7863 33.3801 68.7272 35.6969 72.5187 35.6969C73.1537 35.6744 73.783 35.5684 74.3901 35.3818C74.5131 35.3446 74.6208 35.2689 74.6973 35.166C74.7737 35.063 74.8148 34.9383 74.8145 34.8103L74.7866 32.6909Z" fill="white"/>
<path d="M82.9888 20.8258C81.5126 20.8238 80.0691 21.2577 78.8407 22.0727C77.6123 22.8877 76.6544 24.0471 76.088 25.4043C75.5217 26.7615 75.3725 28.2555 75.6592 29.6971C75.9459 31.1388 76.6557 32.4634 77.6987 33.5033C78.7418 34.5433 80.0712 35.2518 81.5189 35.5393C82.9665 35.8267 84.4672 35.6802 85.8312 35.1183C87.1952 34.5564 88.3611 33.6042 89.1814 32.3824C90.0017 31.1606 90.4396 29.7239 90.4396 28.2543C90.4396 26.2859 89.6549 24.398 88.2579 23.0052C86.8609 21.6124 84.9658 20.8286 82.9888 20.8258ZM82.9888 32.3512C82.175 32.3505 81.3798 32.1097 80.7035 31.6591C80.0273 31.2085 79.5004 30.5684 79.1895 29.8197C78.8786 29.071 78.7976 28.2474 78.9567 27.4529C79.1159 26.6584 79.5081 25.9287 80.0837 25.3561C80.6594 24.7835 81.3926 24.3936 82.1907 24.2358C82.9889 24.078 83.8161 24.1594 84.5678 24.4696C85.3195 24.7797 85.962 25.3049 86.414 25.9785C86.866 26.6522 87.1072 27.4441 87.1072 28.2543C87.1072 28.7926 87.0007 29.3256 86.7937 29.8229C86.5866 30.3202 86.2832 30.772 85.9007 31.1525C85.5183 31.5329 85.0642 31.8347 84.5646 32.0403C84.0649 32.246 83.5294 32.3517 82.9888 32.3512Z" fill="white"/>
<path d="M120.647 17.6451C120.647 16.6553 119.841 15.8529 118.846 15.8529C117.852 15.8529 117.046 16.6553 117.046 17.6451C117.046 18.6349 117.852 19.4373 118.846 19.4373C119.841 19.4373 120.647 18.6349 120.647 17.6451Z" fill="white"/>
<path d="M119.957 21.2728H117.693C117.363 21.2728 117.095 21.5395 117.095 21.8685V34.6441C117.095 34.973 117.363 35.2397 117.693 35.2397H119.957C120.288 35.2397 120.556 34.973 120.556 34.6441V21.8685C120.556 21.5395 120.288 21.2728 119.957 21.2728Z" fill="white"/>
<path d="M62.2643 21.2726H59.9964C59.8377 21.2726 59.6855 21.3353 59.5733 21.447C59.4611 21.5587 59.3981 21.7102 59.3981 21.8682V21.9825C58.2699 21.2696 56.9701 20.8713 55.6345 20.8295C54.2989 20.7876 52.9765 21.1036 51.8055 21.7445C50.6345 22.3854 49.6578 23.3276 48.9776 24.4728C48.2973 25.6179 47.9385 26.9239 47.9385 28.2543C47.9385 29.5847 48.2973 30.8907 48.9776 32.0358C49.6578 33.1809 50.6345 34.1231 51.8055 34.764C52.9765 35.4049 54.2989 35.7209 55.6345 35.6791C56.9701 35.6372 58.2699 35.239 59.3981 34.5261V34.6438C59.3981 34.8018 59.4611 34.9533 59.5733 35.065C59.6855 35.1767 59.8377 35.2395 59.9964 35.2395H62.2643C62.4224 35.2385 62.5737 35.1754 62.6851 35.0638C62.7966 34.9522 62.8591 34.8012 62.8591 34.6438V21.8682C62.8591 21.7108 62.7966 21.5598 62.6851 21.4482C62.5737 21.3366 62.4224 21.2735 62.2643 21.2726ZM55.3979 32.3547C54.6259 32.3543 53.8697 32.1377 53.2155 31.7297C52.5613 31.3217 52.0356 30.7387 51.6984 30.0473C51.3612 29.356 51.2261 28.5841 51.3086 27.8199C51.3911 27.0558 51.6878 26.3301 52.1649 25.7259C52.6419 25.1217 53.2801 24.6632 54.0064 24.4029C54.7328 24.1426 55.518 24.091 56.2724 24.2539C57.0268 24.4169 57.7199 24.7878 58.2727 25.3243C58.8254 25.8608 59.2154 26.5413 59.3981 27.2881V29.2274C59.1786 30.1213 58.6632 30.9155 57.935 31.4822C57.2068 32.0489 56.3082 32.355 55.384 32.3512L55.3979 32.3547Z" fill="white"/>
<path d="M133.572 32.289C133.571 32.1894 133.546 32.0916 133.497 32.0045C133.449 31.9174 133.379 31.8438 133.295 31.7904C133.21 31.737 133.114 31.7055 133.014 31.6989C132.914 31.6922 132.814 31.7105 132.723 31.7522C131.867 32.1435 130.935 32.3466 129.993 32.3479C127.394 32.3479 125.784 30.5367 125.784 28.2475C125.784 25.9584 127.394 24.1471 129.993 24.1471C130.936 24.1497 131.867 24.354 132.723 24.7463C132.814 24.7878 132.914 24.8062 133.013 24.7997C133.113 24.7932 133.209 24.762 133.293 24.709C133.378 24.6561 133.447 24.5829 133.496 24.4963C133.545 24.4096 133.571 24.3122 133.572 24.2129V21.9861C133.573 21.8687 133.538 21.7538 133.473 21.6559C133.408 21.5579 133.315 21.4812 133.207 21.4355C132.186 21.0262 131.094 20.8191 129.993 20.826C125.366 20.826 122.232 24.1541 122.232 28.2544C122.232 32.3548 125.363 35.6829 129.993 35.6829C131.094 35.6914 132.186 35.4843 133.207 35.0734C133.315 35.0287 133.408 34.9527 133.473 34.8552C133.538 34.7578 133.573 34.6432 133.572 34.5262V32.289Z" fill="white"/>
</svg>
