<svg width="21" height="21" viewBox="0 0 21 21" fill="none" xmlns="http://www.w3.org/2000/svg">
<path fill-rule="evenodd" clip-rule="evenodd" d="M16.3163 7.96696H8.54485C9.12937 7.21868 9.48371 6.26849 9.48371 5.23425C9.48371 4.20002 9.12937 3.25407 8.54485 2.50154H16.3163C17.7912 2.50154 18.9945 3.72911 18.9945 5.23425C18.9945 6.74353 17.7912 7.96696 16.3163 7.96696ZM5.17402 7.95021C3.79802 7.95021 2.66028 6.87814 2.52399 5.51173C2.51591 5.41921 2.51185 5.32678 2.51185 5.23425C2.51185 5.14173 2.51591 5.0493 2.52399 4.95677C2.66028 3.59037 3.79802 2.51829 5.17402 2.51829C6.64088 2.51829 7.83613 3.73759 7.83613 5.23425C7.83613 6.73092 6.64088 7.95021 5.17402 7.95021ZM16.3163 0.819824H5.19016C2.80059 0.819824 0.863281 2.79577 0.863281 5.23425C0.863281 7.67273 2.80059 9.64868 5.19016 9.64868H16.3163C18.7058 9.64868 20.6421 7.67273 20.6421 5.23425C20.6421 2.79577 18.7058 0.819824 16.3163 0.819824Z" fill="white"/>
<path fill-rule="evenodd" clip-rule="evenodd" d="M2.51185 16.5856C2.51185 15.0805 3.71119 13.8529 5.19016 13.8529H12.9575C12.372 14.6054 12.0217 15.5514 12.0217 16.5856C12.0217 17.6199 12.372 18.5701 12.9575 19.3183H5.19016C3.71119 19.3183 2.51185 18.0949 2.51185 16.5856ZM13.6702 16.5856C13.6702 15.089 14.8655 13.8697 16.3324 13.8697C17.7084 13.8697 18.8421 14.9417 18.9774 16.3082C18.9905 16.4007 18.9945 16.4931 18.9945 16.5856C18.9945 16.6782 18.9905 16.7706 18.9774 16.8631C18.8421 18.2295 17.7084 19.3016 16.3324 19.3016C14.8655 19.3016 13.6702 18.0823 13.6702 16.5856ZM0.863281 16.5856C0.863281 19.0241 2.80059 21.0001 5.19016 21.0001H16.3163C18.7058 21.0001 20.6421 19.0241 20.6421 16.5856C20.6421 14.1472 18.7058 12.1712 16.3163 12.1712H5.19016C2.80059 12.1712 0.863281 14.1472 0.863281 16.5856Z" fill="white"/>
</svg>
