<svg width="18" height="19" viewBox="0 0 18 19" fill="none" xmlns="http://www.w3.org/2000/svg">
<path fill-rule="evenodd" clip-rule="evenodd" d="M9.00004 18.4996C13.9704 18.4996 17.9996 14.4704 17.9996 9.50004C17.9996 4.52972 13.9704 0.500488 9.00004 0.500488C4.02972 0.500488 0.000488281 4.52972 0.000488281 9.50004C0.000488281 14.4704 4.02972 18.4996 9.00004 18.4996Z" fill="#F7931A"/>
<path fill-rule="evenodd" clip-rule="evenodd" d="M13.6764 12.785L13.5796 12.9884C13.3353 13.5009 12.7399 13.8596 12.1315 13.8596C11.6473 13.8596 11.2315 13.6755 10.93 13.3272C10.593 12.938 10.4143 12.3557 10.4143 11.6433C10.4143 10.9791 10.5885 10.4198 10.9179 10.0233C11.214 9.66327 11.6568 9.45608 12.123 9.45947C12.699 9.45947 13.2628 9.80012 13.4932 10.2879L13.5832 10.481L14.6349 9.51887L14.5854 9.41537C14.1804 8.56307 13.1953 8.03387 12.0177 8.03387C10.0512 8.03387 8.72998 9.48332 8.72998 11.6415C8.72998 13.8641 10.0237 15.3005 12.0262 15.3005C13.1962 15.3005 14.1691 14.7798 14.634 13.9077L14.6875 13.8074L13.6764 12.785Z" fill="white"/>
<path fill-rule="evenodd" clip-rule="evenodd" d="M8.42554 10.9211C8.39313 11.1597 8.37705 11.4003 8.37739 11.6411C8.37709 11.87 8.39077 12.0987 8.41834 12.326C8.23789 12.3463 8.04889 12.3611 7.85314 12.371V13.9343L6.90814 13.9294V12.3872C6.66334 12.3859 6.41314 12.3827 6.15439 12.376V13.9258L5.21164 13.9204V12.3548C5.13001 12.3538 5.04788 12.3523 4.96526 12.3507C4.82382 12.348 4.68095 12.3454 4.53664 12.3454L3.30859 12.3391L3.49624 11.2141C3.49624 11.2141 4.19464 11.2285 4.18249 11.2177C4.44709 11.219 4.52044 11.0278 4.53709 10.9076V6.66635C4.50109 6.47555 4.37689 6.25055 3.99439 6.25055C4.00609 6.2375 3.30904 6.24695 3.30904 6.24695V5.24075L4.61044 5.24795V5.2529C4.80574 5.2538 5.00644 5.2511 5.21074 5.24795V3.69995L6.15574 3.70535V5.22275C6.40774 5.21915 6.66154 5.2169 6.90949 5.2169V3.7094L7.85449 3.71435V5.261C9.07264 5.3744 10.0374 5.75375 10.145 6.87065C10.2242 7.6865 9.88219 8.1761 9.33499 8.4515C9.43483 8.47604 9.53323 8.50609 9.62974 8.5415C9.54039 8.62103 9.45522 8.70514 9.37459 8.7935C9.10417 9.09179 8.88587 9.43346 8.72884 9.8042C8.37137 9.12348 7.08596 9.14672 6.40876 9.15896C6.32044 9.16056 6.24247 9.16196 6.17824 9.1616V11.2384C6.23142 11.2386 6.29404 11.2397 6.36417 11.2411C6.90122 11.2513 7.87866 11.2698 8.42554 10.9211ZM6.37386 6.32851C6.29916 6.33006 6.23327 6.33142 6.17914 6.3311V8.213C6.22343 8.21323 6.27568 8.21436 6.33424 8.21563C6.97776 8.22959 8.38414 8.2601 8.38414 7.2842C8.38414 6.28684 7.03444 6.31482 6.37386 6.32851Z" fill="white"/>
</svg>
