<svg width="19" height="19" viewBox="0 0 19 19" fill="none" xmlns="http://www.w3.org/2000/svg">
<path d="M9.4945 6.61353L8.97607 8.69408C9.56398 8.84015 11.3794 9.43866 11.6733 8.26122C11.9797 7.03391 10.0842 6.75959 9.4945 6.61353Z" fill="#FC8A00"/>
<path d="M8.71396 9.74512L8.14209 12.0394C8.84936 12.2158 11.0282 12.914 11.3506 11.6208C11.6873 10.2706 9.42123 9.92147 8.71396 9.74512Z" fill="#FC8A00"/>
<path d="M11.7964 0.284753C6.70662 -0.985311 1.55267 2.11236 0.284219 7.20331C-0.984228 12.2925 2.11207 17.4475 7.20011 18.7158C12.2899 19.9841 17.4457 16.8882 18.7159 11.7991C19.9843 6.70811 16.8863 1.55304 11.7964 0.284753ZM13.733 8.28099C13.5958 9.20548 13.0827 9.65437 12.4022 9.81112C13.3375 10.2974 13.8131 11.0456 13.3588 12.3388C12.7977 13.9455 11.4597 14.0809 9.68177 13.746L9.25064 15.4739L8.20845 15.2138L8.63424 13.5091C8.36344 13.4414 8.08731 13.3702 7.80404 13.2936L7.37648 15.0072L6.33607 14.7471L6.7672 13.0157C6.52491 12.9533 6.27728 12.8874 6.0243 12.8233L4.66678 12.4848L5.18342 11.2914C5.18342 11.2914 5.95126 11.4962 5.94057 11.4802C6.2363 11.5532 6.36635 11.3609 6.41802 11.2326L7.10034 8.50009L7.2108 8.52681C7.16982 8.51078 7.13063 8.50009 7.10212 8.49296L7.58848 6.54245C7.60095 6.32157 7.52434 6.0419 7.10212 5.93681C7.11816 5.92612 6.34497 5.74799 6.34497 5.74799L6.62289 4.63468L8.06058 4.99272L8.0588 4.99806C8.27437 5.0515 8.49706 5.10316 8.72509 5.15482L9.15266 3.44299L10.1949 3.70306L9.7762 5.38104C10.0559 5.44517 10.3374 5.50929 10.6117 5.57698L11.0268 3.90969L12.069 4.16976L11.6415 5.88159C12.9598 6.33582 13.9218 7.01627 13.733 8.28099Z" fill="#FC8A00"/>
</svg>
