<svg width="18" height="19" viewBox="0 0 18 19" fill="none" xmlns="http://www.w3.org/2000/svg">
<path fill-rule="evenodd" clip-rule="evenodd" d="M17.9236 9.54446C17.9236 14.4903 13.9143 18.4997 8.96841 18.4997C4.02253 18.4997 0.0131836 14.4903 0.0131836 9.54446C0.0131836 4.59858 4.02253 0.589233 8.96841 0.589233C13.9143 0.589233 17.9236 4.59858 17.9236 9.54446Z" fill="#FFC246"/>
<path fill-rule="evenodd" clip-rule="evenodd" d="M12.9769 8.32153C13.162 7.06374 12.2138 6.38385 10.9122 5.93059L11.333 4.23088L10.2838 3.96459L9.86863 5.63031L9.04949 5.43201L9.45906 3.76062L8.43233 3.5L8.01154 5.19972L5.93564 4.6898L5.68316 5.80028C5.68316 5.80028 6.4462 5.97592 6.42937 5.98725C6.71928 6.03091 6.92705 6.29256 6.90626 6.58782L5.78415 11.2677C5.75446 11.3639 5.6881 11.4443 5.59969 11.491C5.51129 11.5378 5.4081 11.5471 5.31287 11.517L4.51056 11.3244L4 12.5142L5.34092 12.8541L6.0759 13.0467L5.6495 14.7465L6.67623 15.0014L7.09702 13.3017L7.92738 13.5397L7.50659 15.2394L8.53893 15.5L8.96533 13.772C10.7214 14.1119 12.0399 13.9759 12.5954 12.3725C13.0442 11.0807 12.5954 10.3329 11.6528 9.85127C12.3867 9.70367 12.9302 9.0757 12.9769 8.32153ZM10.6261 11.653C10.3063 12.9448 8.1518 12.2195 7.4561 12.0722L8.01715 9.80595C8.69603 9.95892 10.9346 10.2989 10.6036 11.653H10.6261ZM10.9402 8.30453C10.6541 9.47734 8.85873 8.87111 8.28085 8.73513L8.76897 6.66147C9.35246 6.80878 11.2208 7.08074 10.9178 8.30453H10.9402Z" fill="white"/>
</svg>
