<svg width="40" height="40" viewBox="0 0 40 40" fill="none" xmlns="http://www.w3.org/2000/svg">
<path d="M19.9884 13.9233L18.897 18.3035C20.1347 18.611 23.9565 19.871 24.5754 17.3922C25.2205 14.8084 21.2298 14.2308 19.9884 13.9233Z" fill="#FFB052"/>
<path d="M18.3455 20.516L17.1416 25.3461C18.6306 25.7174 23.2176 27.1874 23.8964 24.4648C24.6053 21.6223 19.8345 20.8873 18.3455 20.516Z" fill="#FFB052"/>
<path d="M24.8346 0.59948C14.1192 -2.07434 3.26877 4.44708 0.598356 15.1649C-2.07206 25.8789 4.44645 36.7317 15.1581 39.4017C25.8735 42.0718 36.7277 35.5541 39.4019 24.8401C42.0723 14.1223 35.55 3.26955 24.8346 0.59948ZM28.9115 17.4337C28.6227 19.38 27.5425 20.325 26.1098 20.655C28.0789 21.6788 29.0803 23.2538 28.1239 25.9764C26.9425 29.359 24.1258 29.644 20.3827 28.939L19.475 32.5766L17.281 32.029L18.1773 28.4402C17.6073 28.2977 17.0259 28.1477 16.4296 27.9864L15.5294 31.594L13.3391 31.0465L14.2467 27.4014C13.7366 27.2702 13.2153 27.1314 12.6827 26.9964L9.82479 26.2839L10.9125 23.7713C10.9125 23.7713 12.529 24.2026 12.5065 24.1688C13.1291 24.3226 13.4028 23.9176 13.5116 23.6476L14.9481 17.8949L15.1806 17.9512C15.0944 17.9174 15.0118 17.8949 14.9518 17.8799L15.9757 13.7736C16.002 13.3086 15.8407 12.7198 14.9518 12.4985C14.9856 12.476 13.3578 12.101 13.3578 12.101L13.9429 9.75722L16.9697 10.511L16.9659 10.5222C17.4197 10.6347 17.8885 10.7435 18.3686 10.8522L19.2688 7.2484L21.4628 7.79592L20.5815 11.3285C21.1703 11.4635 21.7629 11.5985 22.3405 11.741L23.2144 8.23093L25.4085 8.77844L24.5083 12.3823C27.2838 13.3386 29.3091 14.7711 28.9115 17.4337Z" fill="#FFB052"/>
</svg>
