<svg width="19" height="19" viewBox="0 0 19 19" fill="none" xmlns="http://www.w3.org/2000/svg">
<path d="M9.5 0C4.25349 0 0 4.25349 0 9.5C0 14.7465 4.25349 19 9.5 19C14.7465 19 19 14.7465 19 9.5C19 4.25349 14.7465 0 9.5 0ZM3.88532 8.65921H8.38131L7.82197 10.3337H3.28172L3.88532 8.65921ZM15.605 7.737L14.4863 11.2559C14.3854 11.5002 14.2597 11.7338 14.1146 11.9533C13.9376 12.1781 13.734 12.3799 13.511 12.5569C13.2809 12.7463 13.0101 12.8844 12.7711 13.0189C12.5339 13.1056 12.2843 13.1534 12.0312 13.1623H3.55962L4.16322 11.3515H11.8011L13.0083 7.65027H5.36864L5.97224 5.83948H14.4031C14.6279 5.8324 14.8509 5.88196 15.0527 5.98286C15.251 6.05897 15.4191 6.20766 15.5147 6.39706C15.6227 6.58114 15.6846 6.78824 15.697 7.00065C15.7395 7.24846 15.7077 7.50512 15.605 7.737Z" fill="#2278FA"/>
</svg>
