<svg width="18" height="19" viewBox="0 0 18 19" fill="none" xmlns="http://www.w3.org/2000/svg">
<path fill-rule="evenodd" clip-rule="evenodd" d="M17.9236 9.54446C17.9236 14.4903 13.9143 18.4997 8.96841 18.4997C4.02253 18.4997 0.0131836 14.4903 0.0131836 9.54446C0.0131836 4.59858 4.02253 0.589233 8.96841 0.589233C13.9143 0.589233 17.9236 4.59858 17.9236 9.54446Z" fill="#07BB62"/>
<path fill-rule="evenodd" clip-rule="evenodd" d="M4.89609 9.28605C5.11475 9.28585 5.29197 9.11563 5.29217 8.90559C5.29217 8.90019 5.29136 8.89479 5.29055 8.88939C5.29001 8.88579 5.28947 8.88219 5.28917 8.87859L8.73924 7.18145C8.88453 7.30121 9.09907 7.30121 9.24436 7.18145L12.6944 8.87895C12.6944 8.88341 12.6937 8.88778 12.6929 8.89219C12.6922 8.89668 12.6914 8.90122 12.6914 8.90595C12.688 9.07006 12.7923 9.21854 12.952 9.27685C13.1118 9.33516 13.2924 9.29072 13.4033 9.16583C13.5142 9.04094 13.5314 8.86258 13.4462 8.72027C13.3611 8.57795 13.192 8.50243 13.0238 8.53161L9.31668 2.89808C9.43152 2.73989 9.40499 2.52419 9.25492 2.39607C9.10486 2.26796 8.87874 2.26796 8.72867 2.39607C8.57861 2.52419 8.55207 2.73989 8.66692 2.89808L4.95979 8.53125C4.8135 8.50994 4.66706 8.56881 4.58017 8.68385C4.49328 8.79889 4.48047 8.95089 4.54697 9.07786C4.61346 9.20483 4.74814 9.28556 4.89609 9.28713V9.28605ZM9.14618 3.19288L12.6562 8.52801L9.38488 6.91869C9.38488 6.91423 9.38561 6.90987 9.38636 6.90546L9.38636 6.90544V6.90544C9.38712 6.90095 9.38788 6.89641 9.38788 6.89169C9.38777 6.73885 9.29263 6.60085 9.14618 6.5411V3.19288ZM8.83779 6.54038V3.19288L5.32777 8.52801L8.59872 6.91833C8.59842 6.91453 8.59787 6.91086 8.59732 6.90721C8.59652 6.90185 8.59572 6.89654 8.59572 6.89097C8.59599 6.73808 8.69126 6.6001 8.83779 6.54038ZM8.9918 11.7718L12.2965 9.41239L8.9918 8.00572L5.68713 9.41239L8.9918 11.7718ZM12.7728 9.77298C12.848 9.67934 12.9648 9.62522 13.0879 9.62692H13.0856C13.2997 9.63325 13.4699 9.8018 13.4699 10.0076C13.4699 10.2133 13.2997 10.3819 13.0856 10.3882C13.0649 10.3877 13.0442 10.3856 13.0238 10.3821L9.31406 16.0998C9.43037 16.2578 9.40472 16.4745 9.25445 16.6033C9.10418 16.7322 8.87717 16.7322 8.7269 16.6033C8.57664 16.4745 8.55099 16.2578 8.66729 16.0998L4.95755 10.3821C4.93725 10.3856 4.91671 10.3876 4.89609 10.3882C4.73586 10.3882 4.59141 10.2955 4.53013 10.1533C4.46884 10.011 4.5028 9.84738 4.61615 9.73859C4.72951 9.62981 4.89993 9.59735 5.04793 9.65635C5.19592 9.71535 5.29232 9.85419 5.29217 10.0081C5.29167 10.0402 5.28689 10.0722 5.27793 10.1031L8.75573 12.6674C8.89511 12.5651 9.08849 12.5651 9.22788 12.6674L12.7057 10.1028C12.6727 9.98882 12.6976 9.86661 12.7728 9.77298ZM5.47654 10.6222L8.83779 15.8011V13.3218C8.6705 13.2611 8.57117 13.0953 8.60059 12.9258L5.47654 10.6222ZM9.14619 15.8011V13.3211C9.29264 13.2613 9.38777 13.1233 9.38788 12.9705C9.38723 12.9554 9.3856 12.9404 9.38301 12.9255L12.5071 10.6218L9.14619 15.8011Z" fill="white"/>
</svg>
