<svg width="19" height="19" viewBox="0 0 19 19" fill="none" xmlns="http://www.w3.org/2000/svg">
<path fill-rule="evenodd" clip-rule="evenodd" d="M18.0755 9.45522C18.0755 14.4011 14.0661 18.4104 9.12026 18.4104C4.17438 18.4104 0.165039 14.4011 0.165039 9.45522C0.165039 4.50934 4.17438 0.5 9.12026 0.5C14.0661 0.5 18.0755 4.50934 18.0755 9.45522Z" fill="#5D8BAD"/>
<path fill-rule="evenodd" clip-rule="evenodd" d="M8.76639 4.11428L8.76825 4.1142C8.90302 4.10827 9.07941 4.10051 9.21299 4.09998C9.68604 4.10187 9.9331 4.28706 9.83644 4.65017C9.71736 5.09588 9.10903 5.70088 8.29199 6.24297C8.13754 6.31641 7.97824 6.10799 8.01118 6.01944C8.01778 6.00654 8.02697 5.99515 8.03818 5.98597C8.75181 5.51271 9.28292 4.98466 9.38822 4.59537C9.4804 4.24264 9.20312 4.08358 8.69682 4.12013L8.76639 4.11428ZM8.64435 4.12454L8.69682 4.12013C8.67959 4.12138 8.6621 4.12285 8.64435 4.12454ZM11.8188 5.34425C11.9104 5.00274 11.7962 4.76733 11.5218 4.6399C11.4337 4.59774 11.3246 4.55178 11.2215 4.50834L11.2215 4.50834L11.2215 4.50833L11.2215 4.50833L11.1368 4.47252C11.1157 4.46334 11.0939 4.45416 11.0706 4.44553L11.1368 4.47252C11.396 4.59239 11.504 4.81403 11.4181 5.1361C11.1619 6.09934 9.26942 7.59334 7.19278 8.47343C6.83151 8.62877 6.4613 8.76246 6.08413 8.8738C6.05149 8.88545 6.02321 8.90684 6.00312 8.93508C5.91996 9.05386 5.95236 9.34165 6.15136 9.31303C6.55212 9.19518 6.9455 9.05356 7.32941 8.88891C9.53673 7.95429 11.5461 6.36769 11.8188 5.34425ZM13.9106 6.91574L13.977 7.04262C14.0176 7.15379 14.0325 7.19442 14.0382 7.23631C14.0415 7.26043 14.0419 7.28497 14.0424 7.32364V7.32366C14.0416 7.3307 14.0385 7.33728 14.0334 7.34229C13.9732 7.32204 13.8274 7.04532 13.8137 6.92411C13.8146 6.82248 13.7903 6.72221 13.7429 6.63227L13.9106 6.91574ZM13.7216 6.59637L13.7429 6.63227C13.7362 6.61986 13.7291 6.60798 13.7216 6.59637ZM14.3953 8.13678C14.4266 8.25692 14.4223 8.39703 14.3799 8.55712C14.1099 9.56545 12.3937 11.0441 10.3152 12.135C10.083 12.2319 9.94066 12.0567 9.99628 11.9071C10.0189 11.8508 10.061 11.8045 10.1148 11.7765C12.2282 10.6675 13.9738 9.16428 14.2459 8.13921C14.2914 7.96867 14.2939 7.82052 14.2571 7.69478L14.276 7.75229L14.276 7.75231L14.2761 7.75239L14.2761 7.75245L14.2761 7.75247L14.2761 7.75255C14.3175 7.87825 14.3647 8.02149 14.3953 8.13678ZM14.2459 7.66056L14.2571 7.69478C14.2537 7.68319 14.25 7.67178 14.2459 7.66056ZM5.04891 6.15684C5.04377 6.17619 5.03989 6.19585 5.0373 6.2157C5.02616 6.28034 5.0409 6.34676 5.07834 6.40062C5.24521 6.62767 5.87136 6.57556 6.68382 6.23271C6.93943 6.12336 7.18765 5.99747 7.42688 5.85583C7.47845 5.81129 7.44173 5.74244 7.42445 5.7168C7.40717 5.69115 7.32185 5.59396 7.2484 5.62096C7.05826 5.73304 6.861 5.83259 6.65789 5.919C6.01257 6.19302 5.51441 6.2346 5.38156 6.05399C5.34592 6.00539 5.33674 5.94114 5.35834 5.86015C5.39116 5.75804 5.44404 5.6635 5.51387 5.58208C5.63517 5.43681 5.77238 5.3056 5.92293 5.1909C6.30375 4.91627 6.714 4.68492 7.14607 4.50114C7.20034 4.47797 7.25283 4.45836 7.30517 4.4388L7.30517 4.4388L7.35128 4.4215C7.99255 4.21173 8.41241 4.27625 8.3252 4.60318C8.29847 4.70442 8.22637 4.81808 8.11837 4.94739C8.16427 4.99464 8.41403 5.05241 8.52338 4.99842C8.6565 4.84588 8.74641 4.70172 8.78016 4.57592C8.88006 4.20039 8.44994 4.09997 7.76115 4.28462C7.70755 4.29905 7.67684 4.30828 7.63942 4.31952L7.63942 4.31952L7.63941 4.31953L7.63941 4.31953L7.6394 4.31953L7.58348 4.33619C7.51274 4.35697 7.48898 4.3648 7.41095 4.39207C7.33292 4.41934 7.29106 4.43472 7.23706 4.45551C7.18276 4.47574 7.14498 4.49136 7.07209 4.52149L7.05994 4.52651C7.0101 4.5478 6.98554 4.55883 6.94656 4.57634L6.92223 4.58726C6.86742 4.61182 6.84474 4.62289 6.79074 4.64935C6.75335 4.66766 6.7324 4.67848 6.7062 4.692L6.66626 4.71252C6.6155 4.73844 6.59606 4.74897 6.54476 4.77758C6.51071 4.79658 6.49105 4.80808 6.46746 4.82188L6.42623 4.84588C6.37763 4.87396 6.36007 4.88449 6.3085 4.91689C6.27274 4.93935 6.25347 4.95195 6.22836 4.96836L6.1897 4.99356C6.14231 5.02429 6.12335 5.03753 6.07796 5.06924L6.07795 5.06925L6.07794 5.06925L6.07036 5.07455C6.02683 5.10505 6.00506 5.12106 5.97292 5.14468L5.97292 5.14468L5.94453 5.16553C5.90566 5.194 5.88471 5.21031 5.85249 5.2354L5.81979 5.26082C5.77112 5.29975 5.74706 5.3198 5.71151 5.34941L5.7115 5.34941L5.68235 5.37367C5.62808 5.41875 5.60378 5.43927 5.54546 5.49327C5.43699 5.58956 5.33649 5.69447 5.24494 5.80697C5.17967 5.8861 5.1247 5.97319 5.08131 6.06614C5.06815 6.09548 5.05732 6.12581 5.04891 6.15684ZM4.43788 7.01563C4.44145 6.98693 4.44704 6.95851 4.45462 6.93059C4.46683 6.88582 4.48245 6.84205 4.50134 6.79966C4.52996 6.74081 4.57289 6.66467 4.60583 6.60825C4.63068 6.56569 4.66306 6.5199 4.69624 6.47297L4.72868 6.42683L4.74106 6.40903L4.74107 6.40901L4.7411 6.40897C4.78102 6.35153 4.82209 6.29243 4.85829 6.24353L4.93254 6.14715L4.93389 6.14553C4.8937 6.19762 4.85776 6.25113 4.82169 6.30483L4.80483 6.32992C4.75382 6.4094 4.71419 6.49564 4.6871 6.58611C4.65308 6.71381 4.66766 6.81613 4.72436 6.89307C4.89879 7.13091 5.47337 7.12578 6.2491 6.8685C6.36169 6.8523 6.35089 7.05937 6.35062 7.06153C6.3409 7.17437 6.32605 7.34472 5.33944 7.46648C5.05647 7.50103 4.68143 7.49833 4.50242 7.28884L4.4981 7.2829C4.4737 7.24848 4.4561 7.20972 4.44625 7.1687C4.44625 7.16719 4.44566 7.16577 4.44505 7.16428C4.44456 7.16311 4.44406 7.16191 4.44382 7.1606C4.43642 7.11265 4.43443 7.06403 4.43788 7.01563ZM4.04475 7.79852C4.03531 7.83401 4.02819 7.87008 4.02342 7.9065C4.00668 8.04149 4.03341 8.15379 4.09875 8.24288C4.40332 8.65782 5.54735 8.56252 7.0324 7.9335C8.91301 7.13656 10.6273 5.78267 10.86 4.90987C10.944 4.59509 10.8239 4.38667 10.5306 4.27869L10.5215 4.27617L10.5215 4.27617C10.4706 4.26206 10.4162 4.24702 10.3227 4.22766C10.1965 4.20107 10.1905 4.20147 10.1426 4.20467L10.1418 4.20471C10.3943 4.29758 10.5039 4.48872 10.4272 4.7765C10.2144 5.57426 8.64732 6.81206 6.92709 7.54097C5.57138 8.11546 4.5251 8.20347 4.24645 7.82335C4.17166 7.72131 4.15222 7.58551 4.19731 7.41624C4.20793 7.37686 4.221 7.33818 4.23646 7.30043C4.24591 7.27802 4.25563 7.25588 4.26481 7.23536C4.25428 7.25723 4.2451 7.2791 4.23646 7.30043C4.18837 7.4117 4.13775 7.54201 4.09433 7.6538L4.07175 7.71186C4.06131 7.74101 4.05231 7.7699 4.04475 7.79852ZM3.80499 8.85679L3.84846 8.56496L3.88653 8.37085C3.88977 8.356 3.89355 8.34088 3.8976 8.3255C3.89116 8.35521 3.88664 8.38533 3.88212 8.41543L3.88212 8.41544C3.87925 8.43455 3.87638 8.45365 3.87303 8.47263C3.86142 8.6095 3.8895 8.72505 3.957 8.81684C4.00899 8.88573 4.07665 8.94126 4.15438 8.97882C4.22242 9.03956 4.18651 9.27389 4.18597 9.27578C4.17382 9.34732 4.14952 9.43128 4.1028 9.42399C4.01956 9.38215 3.94795 9.32039 3.89436 9.24419V9.2531C3.8881 9.24458 3.88307 9.23527 3.87804 9.22597C3.87527 9.22084 3.87249 9.21571 3.86952 9.21072L3.86513 9.20344C3.86195 9.19822 3.85879 9.19305 3.85602 9.1875C3.85392 9.18331 3.85197 9.18035 3.85017 9.17761C3.84848 9.17505 3.84692 9.17268 3.84549 9.16968C3.82918 9.13222 3.81765 9.09286 3.8112 9.05252C3.81001 9.0466 3.80936 9.04046 3.8087 9.03432L3.80742 9.02336C3.80439 9.00629 3.80223 8.98908 3.80094 8.9718C3.79901 8.93297 3.80036 8.89404 3.80499 8.85544V8.85679ZM3.81929 10.1403C3.82117 10.147 3.82304 10.1537 3.82551 10.1599V10.1586L3.82777 10.1644L3.82777 10.1644C3.82907 10.1678 3.83034 10.1711 3.83172 10.1742C3.84685 10.2108 3.86615 10.2455 3.88923 10.2776C3.88909 10.2754 3.88909 10.2731 3.88923 10.2709C4.27993 10.8162 5.76876 10.6958 7.70364 9.87726C10.1515 8.8387 12.3813 7.0777 12.6831 5.9433C12.766 5.63311 12.6961 5.40175 12.5014 5.25057L12.2854 5.08859L12.1007 4.96386C12.1966 5.03432 12.3742 5.16526 12.3586 5.47491C12.2706 7.2494 5.39803 11.4776 3.86574 9.83731C3.80429 9.75179 3.76957 9.65027 3.76553 9.54555L3.76529 9.512C3.76502 9.52321 3.7651 9.53439 3.76553 9.54555C3.76693 9.64688 3.77414 9.76638 3.78078 9.87638L3.78608 9.96608V9.97148C3.78797 9.98201 3.78797 9.99362 3.78797 10.0039C3.78932 10.0063 3.78932 10.0082 3.78932 10.0106C3.78986 10.0148 3.79085 10.019 3.79188 10.0235C3.79294 10.028 3.79404 10.0327 3.79472 10.0376C3.79917 10.0681 3.80612 10.0982 3.81551 10.1275C3.81688 10.1317 3.81809 10.136 3.81929 10.1403L3.81929 10.1403ZM4.10416 11.3008L4.09984 11.2951L4.09822 11.293L4.09633 11.2905L4.09309 11.286C4.05569 11.2415 4.02949 11.1887 4.01667 11.1321C4.00634 11.0942 3.99488 11.0532 3.98302 11.0107C3.95134 10.8973 3.91674 10.7734 3.89263 10.6702C3.90968 10.7386 3.93976 10.8031 3.9813 10.8602L3.98751 10.8686C4.40927 11.4201 5.95236 11.2887 7.94665 10.4442C10.4912 9.36433 12.809 7.53422 13.1238 6.3542C13.1953 6.08423 13.1567 5.87365 13.0247 5.7195L13.076 5.77471L13.076 5.77472L13.0761 5.77476L13.0761 5.77481C13.1607 5.86566 13.2541 5.96598 13.3249 6.05021C13.4573 6.20733 13.4953 6.42223 13.4227 6.69435C13.1016 7.89814 10.7375 9.7655 8.14186 10.8651C6.10465 11.729 4.53131 11.8618 4.10335 11.297L4.10416 11.3008ZM12.9907 5.68306L13.0247 5.7195C13.0139 5.70708 13.0028 5.69467 12.9907 5.68306ZM3.88815 10.6507C3.88953 10.6572 3.89102 10.6637 3.89263 10.6702L3.88815 10.6507ZM4.43735 12.101C4.50485 12.2468 4.52726 12.263 4.52726 12.263V12.2616C4.55891 12.298 4.59301 12.3322 4.62932 12.3639C5.16934 12.8199 6.69462 12.652 8.6403 11.831C10.202 11.1693 11.6814 10.2342 12.6964 9.32734L12.6964 9.32728C12.7375 9.26977 12.7995 9.18285 12.7469 9.04009C12.7226 8.97422 12.6467 8.83087 12.4701 8.92401C11.4557 9.82921 9.979 10.7628 8.41997 11.4234C6.34388 12.3024 4.74219 12.4357 4.31584 11.8553C4.35148 11.9327 4.38937 12.0096 4.42952 12.0861L4.43735 12.101ZM5.02839 12.9706C4.97196 12.9042 4.91634 12.8369 4.87071 12.7778C4.86774 12.7743 4.86504 12.7705 4.86234 12.7667C4.8645 12.7696 4.86679 12.7722 4.86909 12.7748C4.87138 12.7775 4.87368 12.7801 4.87584 12.7829C5.12911 13.1023 5.7558 13.1936 6.63089 13.0494C6.80748 13.0399 6.92358 13.1873 6.94491 13.2273C6.96948 13.2737 6.99513 13.3561 6.88794 13.3874C6.06199 13.5224 5.4596 13.4465 5.19283 13.1617C5.14234 13.1045 5.08428 13.0359 5.02839 12.9692V12.9706ZM5.6985 13.6435C5.68666 13.6348 5.67525 13.6258 5.66426 13.6166V13.6152C5.67527 13.6245 5.68671 13.6339 5.6985 13.6435ZM5.6985 13.6435C6.20532 14.0157 7.49146 13.8846 9.13468 13.234C9.38255 13.1579 9.46517 13.3237 9.46598 13.3253C9.47975 13.3585 9.4973 13.4433 9.35798 13.5124C7.7814 14.1365 6.54503 14.2645 6.04902 13.9144C6.0155 13.8885 5.97864 13.8604 5.94047 13.8314L5.94044 13.8314C5.85916 13.7696 5.77198 13.7033 5.6985 13.6435ZM12.9745 13.2138C12.9398 13.2697 12.897 13.32 12.8473 13.3631C12.3324 13.7772 11.6533 14.187 10.9418 14.4886C10.3422 14.7426 9.8178 14.8781 9.4298 14.8979C9.29075 14.9006 9.11389 14.9008 8.96188 14.8979C9.40928 14.8979 10.0465 14.7442 10.7847 14.4316C11.5909 14.0898 12.3605 13.6255 12.9448 13.1563C12.9588 13.1468 12.9738 13.1388 12.9896 13.1325L13.0012 13.1539C12.9939 13.1741 12.9849 13.1937 12.9745 13.2124V13.2138ZM8.86845 14.8957C8.89843 14.8979 8.92975 14.8979 8.96188 14.8979L8.86845 14.8957ZM8.18398 14.812C9.65634 15.0485 13.3546 13.2057 14.1606 11.5589C14.209 11.4496 14.2559 11.3079 14.2978 11.1815L14.3178 11.1212C14.3239 11.1043 14.3296 11.0875 14.3348 11.0708L14.3178 11.1212C13.9891 12.0264 12.2654 13.3651 10.3794 14.1643C9.21461 14.6578 8.25143 14.8341 7.71587 14.7032L7.67609 14.6927C7.68908 14.6964 7.70234 14.6999 7.71587 14.7032C7.85764 14.7399 8.03404 14.7789 8.17218 14.8094L8.18398 14.812ZM14.5459 9.99715C14.5407 10.0367 14.5354 10.0804 14.5299 10.1256L14.5299 10.1257C14.5177 10.2257 14.5046 10.3331 14.4898 10.4194C14.4852 10.4464 14.4792 10.4717 14.4719 10.499C14.2076 11.4898 12.2617 13.0267 10.1248 13.9319C8.73561 14.5207 7.60751 14.6973 7.06183 14.4756L6.99233 14.4435C6.86931 14.3867 6.72578 14.3205 6.61604 14.2629C8.49071 15.0436 14.2762 11.8823 14.5524 9.92615L14.5459 9.99715ZM12.5786 11.729C13.6206 10.9598 14.3672 10.1535 14.5319 9.53577H14.5321C14.5562 9.45016 14.5672 9.36143 14.5648 9.27255L14.5548 9.09869L14.523 8.79123C14.5338 8.90055 14.5236 9.01095 14.493 9.11651C14.3226 9.75579 13.5504 10.5911 12.4704 11.3875C12.4152 11.4321 12.3766 11.494 12.361 11.5632C12.3356 11.6834 12.4099 11.8324 12.5786 11.729Z" fill="white"/>
</svg>
