<svg width="19" height="19" viewBox="0 0 19 19" fill="none" xmlns="http://www.w3.org/2000/svg">
<path d="M9.50089 19C4.25293 19 0 14.7457 0 9.5C0 4.25253 4.25293 0 9.50089 0C10.2427 0 10.9827 0.0873686 11.7049 0.25854C12.2524 0.388701 12.5912 0.937875 12.461 1.48527C12.3308 2.03266 11.7816 2.37143 11.2342 2.24127C7.22553 1.28378 3.19906 3.75863 2.24148 7.76689C1.2839 11.7769 3.75899 15.803 7.76762 16.7605C11.7763 17.7162 15.8027 15.2431 16.7603 11.2331C17.0331 10.092 17.0331 8.90268 16.7585 7.76333C16.6283 7.21593 16.9672 6.66676 17.5146 6.5366C18.062 6.40644 18.6113 6.74521 18.7414 7.29261C18.9126 8.01652 18.9982 8.75647 19 9.5C19.0018 14.7457 14.7471 19 9.50089 19Z" fill="#41EAD4"/>
<path d="M16.4462 2.54982C15.8541 1.95963 14.8966 1.95963 14.3027 2.54982C14.2903 2.56408 14.2778 2.57834 14.2653 2.59083C14.0371 2.83867 13.8944 3.15605 13.8623 3.49126C13.8623 3.54475 13.8623 3.59824 13.8623 3.6553C13.8623 3.71235 13.8623 3.72662 13.8623 3.76584C13.7161 5.25468 12.3894 6.34233 10.9004 6.19612C10.7809 6.18364 10.6615 6.16402 10.5455 6.13728L10.3244 6.08022C10.0373 6.0089 9.74311 5.97681 9.4471 5.98215C8.58224 5.99464 7.75127 6.32806 7.11824 6.91646L7.01124 7.01096C5.63818 8.3839 5.63818 10.6109 7.01124 11.9856C8.38431 13.3603 10.6115 13.3586 11.9864 11.9856C12.1272 11.8376 12.2539 11.6772 12.3662 11.506C12.9457 10.6858 13.1472 9.65699 12.9208 8.6781C12.8994 8.61569 12.8815 8.55329 12.8673 8.48732C12.8673 8.48732 12.8673 8.4677 12.8673 8.457C12.5285 7.00027 13.4361 5.54353 14.893 5.20475C15.0214 5.17444 15.1516 5.15483 15.2835 5.14413H15.3441H15.5296C15.8791 5.11025 16.2072 4.95513 16.4569 4.70729C16.5139 4.64488 16.5674 4.57891 16.6173 4.50937C17.0489 3.90314 16.9758 3.07403 16.4462 2.54982Z" fill="#41EAD4"/>
</svg>
