<svg width="19" height="19" viewBox="0 0 19 19" fill="none" xmlns="http://www.w3.org/2000/svg">
<path fill-rule="evenodd" clip-rule="evenodd" d="M18.0887 9.54446C18.0887 14.4903 14.0793 18.4997 9.13345 18.4997C4.18757 18.4997 0.178223 14.4903 0.178223 9.54446C0.178223 4.59858 4.18757 0.589233 9.13345 0.589233C14.0793 0.589233 18.0887 4.59858 18.0887 9.54446Z" fill="#08316A"/>
<path fill-rule="evenodd" clip-rule="evenodd" d="M8.04101 5.05656L9.12592 3.22765C9.14315 3.1908 9.19261 3.1908 9.19931 3.22765L14.562 12.2796C14.5684 12.2984 14.5649 12.3192 14.5527 12.335L11.4649 15.7632C11.4545 15.7728 11.4413 15.7792 11.4272 15.7814H8.91947C8.90058 15.7845 8.88188 15.775 8.87332 15.7581C8.86476 15.7412 8.86833 15.7208 8.88214 15.7077L12.1292 12.105C12.1448 12.0908 12.1483 12.0677 12.1375 12.0496L8.04101 5.10286C8.03175 5.08878 8.03175 5.07064 8.04101 5.05656ZM9.6486 13.9248L7.98293 15.7723C7.97826 15.7763 7.97202 15.7805 7.96577 15.7846C7.95793 15.7897 7.95007 15.7949 7.94528 15.8H6.89801C6.88326 15.7998 6.86942 15.7929 6.86036 15.7814L3.77281 12.3545C3.76258 12.3374 3.76258 12.3162 3.77281 12.2991L7.61789 5.77728C7.62092 5.77318 7.62458 5.76957 7.62874 5.76657C7.63989 5.75835 7.65391 5.75486 7.66769 5.75687C7.68146 5.75888 7.69385 5.76622 7.70213 5.77728L8.77811 7.60618C8.78771 7.62016 8.78771 7.6385 8.77811 7.65249L6.17686 12.059C6.17048 12.0779 6.17394 12.0987 6.18611 12.1145L7.73946 13.8325C7.75023 13.842 7.7635 13.8484 7.77775 13.8508H9.61094C9.62988 13.8478 9.64857 13.8573 9.65717 13.8742C9.66577 13.8911 9.6623 13.9116 9.6486 13.9248Z" fill="white"/>
</svg>
