<svg width="19" height="19" viewBox="0 0 19 19" fill="none" xmlns="http://www.w3.org/2000/svg">
<path d="M9.5 0C4.23454 0 0 4.23454 0 9.5C0 14.7655 4.23454 19 9.5 19C14.7655 19 19 14.7655 19 9.5C19 4.23454 14.7655 0 9.5 0ZM7.71963 16.0708C7.71963 16.15 7.71963 16.1905 7.67917 16.2292C7.64046 16.3875 7.48213 16.4667 7.32204 16.3875C5.10713 15.675 3.40417 13.972 2.69167 11.7554C1.50417 7.99583 3.5625 3.99704 7.3238 2.80954C7.36426 2.77083 7.44167 2.77083 7.48213 2.77083C7.64046 2.80954 7.71963 2.92917 7.71963 3.0875V3.64167C7.71963 3.84046 7.64046 3.95833 7.48213 4.0375C5.85833 4.63037 4.55296 5.89704 3.95833 7.55954C2.80954 10.6083 4.39287 14.0512 7.48037 15.1595C7.59824 15.2387 7.71787 15.397 7.71787 15.5167V16.0708H7.71963ZM10.1333 14.053C10.0929 14.25 9.975 14.3696 9.81667 14.3696H9.22204C9.025 14.3292 8.90537 14.2113 8.90537 14.053V13.103C7.6 12.9042 6.96667 12.1917 6.80833 11.203V11.1625C6.80833 11.0042 6.9262 10.8845 7.08454 10.8845H7.75833C7.8762 10.8845 7.99583 10.9637 8.03454 11.122C8.15417 11.7167 8.50954 12.1512 9.5387 12.1512C10.2899 12.1512 10.8458 11.7167 10.8458 11.0833C10.8458 10.45 10.4887 10.2125 9.38037 10.0137C7.71787 9.81491 6.9262 9.3012 6.9262 7.99583C6.9262 7.00537 7.67741 6.2137 8.86491 6.05537V5.14583C8.90537 4.94704 9.02324 4.82917 9.18157 4.82917H9.7762C9.97324 4.86963 10.0929 4.9875 10.0929 5.14583V6.09583C11.0024 6.175 11.7149 6.84704 11.875 7.71787V7.75833C11.875 7.91667 11.7571 8.03454 11.597 8.03454H10.9637C10.8458 8.03454 10.7262 7.95537 10.6857 7.8375C10.4887 7.24287 10.0911 7.00537 9.38037 7.00537C8.5887 7.00537 8.19287 7.36074 8.19287 7.91491C8.19287 8.46907 8.43037 8.78574 9.61787 8.94407C11.2804 9.14111 12.1107 9.61611 12.1107 11.0024C12.1107 12.0703 11.3191 12.9024 10.1316 13.1012V14.053H10.1333ZM11.678 16.428C11.6375 16.4667 11.5601 16.4667 11.5196 16.4667C11.3613 16.428 11.2821 16.3083 11.2821 16.15V15.5958C11.2821 15.397 11.3613 15.2792 11.5196 15.2C13.1417 14.6054 14.4488 13.3405 15.0417 11.678C16.1905 8.62917 14.6071 5.1863 11.5196 4.07796C11.4018 3.9988 11.2821 3.84046 11.2821 3.68213V3.12796C11.2821 3.0488 11.2821 3.00833 11.3226 2.96963C11.3613 2.8113 11.5196 2.73213 11.6797 2.8113C13.8542 3.52204 15.5958 5.225 16.3083 7.48037C17.4958 11.2417 15.4375 15.2405 11.678 16.428Z" fill="#1BC8FF"/>
</svg>
