<svg width="19" height="19" viewBox="0 0 19 19" fill="none" xmlns="http://www.w3.org/2000/svg">
<path fill-rule="evenodd" clip-rule="evenodd" d="M18.0755 9.45522C18.0755 14.4011 14.0661 18.4104 9.12026 18.4104C4.17438 18.4104 0.165039 14.4011 0.165039 9.45522C0.165039 4.50934 4.17438 0.5 9.12026 0.5C14.0661 0.5 18.0755 4.50934 18.0755 9.45522Z" fill="#07BEAA"/>
<path fill-rule="evenodd" clip-rule="evenodd" d="M14.478 5.50406L14.5364 5.5343C14.5656 5.5343 14.5656 5.56346 14.565 5.59262V5.6801V5.68013C14.565 5.94283 14.565 6.20553 14.5358 6.46796C14.5067 6.8473 14.4483 7.228 14.39 7.606C14.2446 8.42274 13.9818 9.21087 13.6606 9.93987C12.7559 11.9824 11.2086 13.7036 9.28204 14.8417L9.16535 14.9L9.107 14.8708C6.64715 13.4341 4.85346 11.0857 4.11523 8.33527C3.99696 7.89444 3.90923 7.44599 3.85266 6.9931C3.79446 6.53831 3.76523 6.08028 3.76514 5.62178C3.76514 5.57937 3.76514 5.56437 3.77179 5.55341C3.77542 5.54741 3.78105 5.54262 3.78975 5.53521L3.78975 5.53521C3.79796 5.52823 3.8089 5.51891 3.82349 5.50406C5.54558 4.54233 7.47216 4.04607 9.42818 4.10466C9.71993 4.10466 10.0119 4.13382 10.3037 4.16298C11.7632 4.30905 13.1938 4.77507 14.478 5.50406ZM4.29 7.08058C4.3199 7.42531 4.37845 7.76695 4.46505 8.10198C4.46505 8.15849 4.49295 8.215 4.52048 8.27078L4.52313 8.27613C5.04907 9.4139 6.42053 9.93905 7.58831 9.38474C8.19157 9.10258 8.63996 8.56929 8.81417 7.92675C8.87265 7.70785 8.90279 7.48237 8.90386 7.25581C8.90386 7.11106 8.93277 6.96659 8.96168 6.82211L8.96248 6.81814C9.13458 5.91535 9.74856 5.15918 10.597 4.80503L10.7418 4.74644C10.7418 4.74644 10.771 4.74644 10.7418 4.71728C10.2734 4.6298 9.80637 4.60064 9.31013 4.57148C7.5297 4.5424 5.77466 4.99615 4.23165 5.88448V5.9428C4.23165 6.32215 4.26083 6.70258 4.29 7.08058ZM11.2373 12.6825C11.1927 12.727 11.1652 12.7886 11.1417 12.8413C11.1344 12.8576 11.1275 12.8731 11.1206 12.8869C11.0987 12.9308 11.0691 12.9703 11.033 13.0035C10.4785 13.4995 9.86526 13.9664 9.22315 14.3457L9.16535 14.3749C8.97655 14.292 8.79982 14.184 8.63994 14.0538C7.50693 13.2962 6.5429 12.3127 5.80841 11.1649C5.48016 10.6352 5.19697 10.0789 4.96182 9.50194C4.94501 9.48498 4.93789 9.47779 4.93487 9.46917C4.93265 9.46283 4.93265 9.45571 4.93265 9.44335L4.991 9.47305C5.16777 9.61737 5.36436 9.73558 5.57475 9.82405C5.83759 9.94069 6.10016 9.99928 6.39217 10.0284C6.96057 10.0878 7.53314 9.96488 8.02701 9.67744C8.31875 9.53164 8.61076 9.41473 8.90251 9.38557C10.0119 9.26893 11.0636 9.93988 11.3839 11.0196C11.559 11.5739 11.5006 12.1574 11.2378 12.6825H11.2373ZM14.0401 6.75982C14.0693 6.49711 14.0693 6.20551 14.0693 5.9428L14.0699 5.88394L13.9823 5.85478C13.8776 5.79456 13.7652 5.73448 13.6529 5.6745C13.5462 5.61751 13.4397 5.56062 13.3402 5.50379L13.3143 5.4921C13.0017 5.3515 12.6892 5.21091 12.3769 5.12579C11.1795 4.74644 9.86472 5.41766 9.48653 6.61375C9.36458 6.97082 9.34438 7.35475 9.42818 7.72263C9.54524 8.36285 9.9267 8.92418 10.479 9.26891L10.5957 9.32723C11.4423 9.85238 11.9677 10.786 11.9093 11.8072C11.8948 11.851 11.8875 11.8948 11.8802 11.9385C11.8729 11.9823 11.8656 12.0261 11.851 12.0699C11.869 12.0699 11.8759 12.0587 11.8854 12.0433C11.8913 12.0338 11.8982 12.0227 11.9093 12.0116L11.9149 12.0044C12.1173 11.7441 12.3196 11.4838 12.4931 11.1945C13.3627 9.86443 13.8938 8.342 14.0401 6.75982Z" fill="white"/>
</svg>
