<svg width="18" height="19" viewBox="0 0 18 19" fill="none" xmlns="http://www.w3.org/2000/svg">
<path fill-rule="evenodd" clip-rule="evenodd" d="M9 18.5C4.02939 18.5 0 14.4706 0 9.5C0 4.52939 4.02939 0.5 9 0.5C13.9706 0.5 18 4.52939 18 9.5C18 14.4706 13.9706 18.5 9 18.5Z" fill="#1786C4"/>
<path fill-rule="evenodd" clip-rule="evenodd" d="M15.2769 4.09998H13.4545L10.5742 7.05037C9.70493 7.94076 8.29568 7.94076 7.42645 7.05037L4.54615 4.09998H2.72376L6.51525 7.98374C7.88772 9.38962 10.1129 9.38962 11.4854 7.98374L15.2769 4.09998ZM2.7002 14.9H4.52259L7.42631 11.9256C8.29553 11.0352 9.70478 11.0352 10.5741 11.9256L13.4778 14.9H15.3002L11.4853 10.9922C10.1128 9.58633 7.88758 9.58633 6.51511 10.9922L2.7002 14.9Z" fill="white"/>
</svg>
