<svg width="19" height="19" viewBox="0 0 19 19" fill="none" xmlns="http://www.w3.org/2000/svg">
<path d="M9.50103 19C8.21828 19 6.97471 18.7484 5.80332 18.2534C4.67112 17.775 3.65646 17.0903 2.78411 16.218C1.91176 15.3456 1.22707 14.3289 0.748616 13.1987C0.251601 12.0253 0 10.7817 0 9.49897C0 8.21622 0.251601 6.97265 0.746554 5.80126C1.22501 4.66905 1.90969 3.6544 2.78205 2.78205C3.6544 1.90969 4.67112 1.22501 5.80126 0.746554C6.97265 0.251601 8.21828 0 9.49897 0C10.7797 0 12.0274 0.249539 13.1987 0.744492C14.3309 1.22295 15.3456 1.90763 16.218 2.77998C17.0903 3.65234 17.775 4.66905 18.2534 5.7992C18.7484 6.97059 19 8.21622 19 9.49691C19 10.7797 18.7484 12.0232 18.2534 13.1946C17.775 14.3268 17.0903 15.3415 16.218 16.2138C15.3456 17.0862 14.3289 17.7709 13.1987 18.2493C12.0274 18.7484 10.7838 19 9.50103 19ZM9.50103 2.10974C7.52741 2.10974 5.67133 2.87898 4.27516 4.27309C2.87898 5.66927 2.1118 7.52535 2.1118 9.49897C2.1118 11.4726 2.88104 13.3287 4.27516 14.7248C5.67133 16.119 7.52741 16.8882 9.50103 16.8882C11.4747 16.8882 13.3307 16.119 14.7269 14.7248C16.121 13.3287 16.8903 11.4726 16.8903 9.49897C16.8903 7.52535 16.121 5.66927 14.7269 4.27309C13.3307 2.87898 11.4747 2.10974 9.50103 2.10974Z" fill="#F7D171"/>
<path d="M8.92971 11.8644C10.3444 11.8644 11.6746 11.8644 13.0461 11.8644C13.0461 12.5615 13.0461 13.2358 13.0461 13.9329C12.2232 13.9329 11.3983 13.9329 10.5115 13.9329C10.5527 14.5248 10.5754 15.0734 10.6167 15.6632C9.89899 15.6632 9.22255 15.6632 8.48425 15.6632C8.48425 15.1146 8.48425 14.5433 8.48425 13.9535C7.61808 13.9535 6.81585 13.9535 5.94968 13.9535C5.94968 13.2771 5.86512 12.6027 5.99092 11.9696C6.05486 11.6314 6.43432 11.3365 6.66736 11.0415C7.4696 10.0908 8.27183 9.16279 9.09469 8.21207C9.41229 7.85323 9.72782 7.51501 10.0867 7.11492C8.73585 7.11492 7.44691 7.11492 6.13941 7.11492C6.13941 6.41787 6.13941 5.74349 6.13941 5.04643C6.9004 5.04643 7.67995 5.04643 8.48219 5.04643C8.48219 4.45455 8.48219 3.90598 8.48219 3.31616C9.17924 3.31616 9.833 3.31616 10.5301 3.31616C10.5301 3.86473 10.5301 4.41331 10.5301 5.00519C11.3756 5.00519 12.1985 5.00519 13.0852 5.00519C13.0852 5.70225 13.1698 6.37662 13.044 7.01181C12.9801 7.35003 12.6006 7.64494 12.3469 7.93985C11.5447 8.89057 10.7425 9.8186 9.91961 10.7693C9.60614 11.1467 9.29061 11.4829 8.92971 11.8644Z" fill="#F7D171"/>
</svg>
